<?xml version="1.0" encoding="UTF-8" standalone="no"?>
<!DOCTYPE svg PUBLIC "-//W3C//DTD SVG 1.1//EN" "http://www.w3.org/Graphics/SVG/1.1/DTD/svg11.dtd">
<svg width="100%" height="100%" viewBox="0 0 1500 79" version="1.1" xmlns="http://www.w3.org/2000/svg" xmlns:xlink="http://www.w3.org/1999/xlink" xml:space="preserve" xmlns:serif="http://www.serif.com/" style="fill-rule:evenodd;clip-rule:evenodd;stroke-linejoin:round;stroke-miterlimit:1.41421;">
    <g transform="matrix(-0.707102,0.707111,0.707111,0.707102,250.092,93.9273)">
        <path d="M-93.519,-39.025L16.453,-39.025L16.165,-38.737L-93.807,-38.737L-93.519,-39.025Z" style="fill:rgb(129,149,168);fill-rule:nonzero;"/>
    </g>
    <g transform="matrix(-0.707107,0.707107,0.707107,0.707107,146.356,93.9276)">
        <path d="M-93.52,-39.025L16.452,-39.025L16.165,-38.737L-93.807,-38.737L-93.52,-39.025Z" style="fill:rgb(129,149,168);fill-rule:nonzero;"/>
    </g>
    <g transform="matrix(-0.707107,0.707107,0.707107,0.707107,42.6269,93.9276)">
        <path d="M-93.52,-39.025L16.452,-39.025L16.165,-38.737L-93.807,-38.737L-93.52,-39.025Z" style="fill:rgb(129,149,168);fill-rule:nonzero;"/>
    </g>
    <g transform="matrix(-0.707107,-0.707107,-0.707107,0.707107,52.9116,21.2758)">
        <clipPath id="_clip1">
            <path d="M-2.816,77.356L-535.023,-454.851L-480.037,-509.837L52.17,22.37L-2.816,77.356Z" clip-rule="nonzero"/>
        </clipPath>
        <g clip-path="url(#_clip1)">
            <rect x="67.985" y="-28.161" width="0.288" height="192.987" style="fill:rgb(129,149,168);"/>
        </g>
    </g>
    <g transform="matrix(-0.707107,0.707107,0.707107,0.707107,270.835,93.9276)">
        <path d="M-93.52,-39.025L16.452,-39.025L16.165,-38.737L-93.807,-38.737L-93.52,-39.025Z" style="fill:rgb(129,149,168);fill-rule:nonzero;"/>
    </g>
    <g transform="matrix(-0.707102,0.707111,0.707111,0.707102,167.107,93.9273)">
        <path d="M-93.519,-39.025L16.453,-39.025L16.165,-38.737L-93.807,-38.737L-93.519,-39.025Z" style="fill:rgb(129,149,168);fill-rule:nonzero;"/>
    </g>
    <g transform="matrix(-0.707107,0.707107,0.707107,0.707107,63.3737,93.9276)">
        <path d="M-93.52,-39.025L16.452,-39.025L16.165,-38.737L-93.807,-38.737L-93.52,-39.025Z" style="fill:rgb(129,149,168);fill-rule:nonzero;"/>
    </g>
    <g transform="matrix(-0.707107,-0.707107,-0.707107,0.707107,73.6547,21.2761)">
        <clipPath id="_clip2">
            <path d="M11.852,92.023L-520.355,-440.183L-465.369,-495.17L66.838,37.037L11.852,92.023Z" clip-rule="nonzero"/>
        </clipPath>
        <g clip-path="url(#_clip2)">
            <rect x="67.985" y="-28.161" width="0.289" height="192.987" style="fill:rgb(129,149,168);"/>
        </g>
    </g>
    <g transform="matrix(-0.707107,0.707107,0.707107,0.707107,291.582,93.9276)">
        <path d="M-93.52,-39.025L16.452,-39.025L16.165,-38.737L-93.807,-38.737L-93.52,-39.025Z" style="fill:rgb(129,149,168);fill-rule:nonzero;"/>
    </g>
    <g transform="matrix(-0.707107,0.707107,0.707107,0.707107,187.848,93.9276)">
        <path d="M-93.52,-39.025L16.452,-39.025L16.165,-38.737L-93.807,-38.737L-93.52,-39.025Z" style="fill:rgb(129,149,168);fill-rule:nonzero;"/>
    </g>
    <g transform="matrix(-0.707107,0.707107,0.707107,0.707107,84.1186,93.9273)">
        <path d="M-93.519,-39.025L16.453,-39.025L16.165,-38.737L-93.807,-38.737L-93.519,-39.025Z" style="fill:rgb(129,149,168);fill-rule:nonzero;"/>
    </g>
    <g transform="matrix(-0.707107,0.707107,0.707107,0.707107,10.0534,23.0002)">
        <path d="M-22.389,-9.849L4.08,-9.849L4.368,-9.562L-22.677,-9.562L-22.389,-9.849Z" style="fill:rgb(129,149,168);fill-rule:nonzero;"/>
    </g>
    <g transform="matrix(-0.707102,0.707111,0.707111,0.707102,312.333,93.9266)">
        <path d="M-93.517,-39.026L16.454,-39.026L16.166,-38.738L-93.806,-38.736L-93.517,-39.026Z" style="fill:rgb(129,149,168);fill-rule:nonzero;"/>
    </g>
    <g transform="matrix(-0.707107,0.707107,0.707107,0.707107,208.597,93.9276)">
        <path d="M-93.52,-39.025L16.452,-39.025L16.165,-38.737L-93.807,-38.737L-93.52,-39.025Z" style="fill:rgb(129,149,168);fill-rule:nonzero;"/>
    </g>
    <g transform="matrix(-0.707107,0.707107,0.707107,0.707107,104.863,93.9276)">
        <path d="M-93.52,-39.025L16.452,-39.025L16.165,-38.737L-93.807,-38.737L-93.52,-39.025Z" style="fill:rgb(129,149,168);fill-rule:nonzero;"/>
    </g>
    <g transform="matrix(-0.707107,0.707107,0.707107,0.707107,20.4253,48.0416)">
        <path d="M-47.43,-20.222L8.376,-20.222L8.664,-19.934L-47.718,-19.934L-47.43,-20.222Z" style="fill:rgb(129,149,168);fill-rule:nonzero;"/>
    </g>
    <g transform="matrix(-0.707102,0.707111,0.707111,0.707102,333.08,93.9266)">
        <path d="M-93.517,-39.026L16.454,-39.026L16.166,-38.738L-93.806,-38.736L-93.517,-39.026Z" style="fill:rgb(129,149,168);fill-rule:nonzero;"/>
    </g>
    <g transform="matrix(-0.707107,0.707107,0.707107,0.707107,229.344,93.9276)">
        <path d="M-93.52,-39.025L16.452,-39.025L16.165,-38.737L-93.807,-38.737L-93.52,-39.025Z" style="fill:rgb(129,149,168);fill-rule:nonzero;"/>
    </g>
    <g transform="matrix(-0.707102,0.707111,0.707111,0.707102,125.616,93.9269)">
        <path d="M-93.518,-39.025L16.453,-39.025L16.166,-38.737L-93.806,-38.737L-93.518,-39.025Z" style="fill:rgb(129,149,168);fill-rule:nonzero;"/>
    </g>
    <g transform="matrix(-0.707101,0.707113,0.707113,0.707101,30.8014,73.0903)">
        <path d="M-72.479,-30.597L12.675,-30.597L12.962,-30.31L-72.767,-30.309L-72.479,-30.597Z" style="fill:rgb(129,149,168);fill-rule:nonzero;"/>
    </g>
    <g transform="matrix(-0.707107,0.707107,0.707107,0.707107,561.285,93.9269)">
        <path d="M-93.518,-39.026L16.454,-39.026L16.165,-38.736L-93.807,-38.736L-93.518,-39.026Z" style="fill:rgb(129,149,168);fill-rule:nonzero;"/>
    </g>
    <g transform="matrix(-0.707107,0.707107,0.707107,0.707107,685.763,93.9273)">
        <path d="M-93.519,-39.025L16.453,-39.025L16.165,-38.737L-93.807,-38.737L-93.519,-39.025Z" style="fill:rgb(129,149,168);fill-rule:nonzero;"/>
    </g>
    <g transform="matrix(-0.707107,0.707107,0.707107,0.707107,457.555,93.9273)">
        <path d="M-93.519,-39.025L16.453,-39.025L16.165,-38.737L-93.807,-38.737L-93.519,-39.025Z" style="fill:rgb(129,149,168);fill-rule:nonzero;"/>
    </g>
    <g transform="matrix(-0.707107,0.707107,0.707107,0.707107,353.82,93.9276)">
        <path d="M-93.52,-39.025L16.452,-39.025L16.165,-38.737L-93.807,-38.737L-93.52,-39.025Z" style="fill:rgb(129,149,168);fill-rule:nonzero;"/>
    </g>
    <g transform="matrix(-0.707107,0.707107,0.707107,0.707107,582.033,93.9273)">
        <path d="M-93.519,-39.025L16.453,-39.025L16.165,-38.737L-93.807,-38.737L-93.519,-39.025Z" style="fill:rgb(129,149,168);fill-rule:nonzero;"/>
    </g>
    <g transform="matrix(-0.707107,0.707107,0.707107,0.707107,706.51,93.9273)">
        <path d="M-93.519,-39.025L16.453,-39.025L16.165,-38.737L-93.807,-38.737L-93.519,-39.025Z" style="fill:rgb(129,149,168);fill-rule:nonzero;"/>
    </g>
    <g transform="matrix(-0.707102,0.707111,0.707111,0.707102,478.303,93.9266)">
        <path d="M-93.517,-39.026L16.454,-39.026L16.166,-38.737L-93.806,-38.736L-93.517,-39.026Z" style="fill:rgb(129,149,168);fill-rule:nonzero;"/>
    </g>
    <g transform="matrix(-0.707107,0.707107,0.707107,0.707107,374.567,93.9276)">
        <path d="M-93.52,-39.025L16.452,-39.025L16.165,-38.737L-93.807,-38.737L-93.52,-39.025Z" style="fill:rgb(129,149,168);fill-rule:nonzero;"/>
    </g>
    <g transform="matrix(-0.707107,0.707107,0.707107,0.707107,602.776,93.9273)">
        <path d="M-93.519,-39.025L16.453,-39.025L16.165,-38.737L-93.807,-38.737L-93.519,-39.025Z" style="fill:rgb(129,149,168);fill-rule:nonzero;"/>
    </g>
    <g transform="matrix(1,0,0,1,688.025,13.1343)">
        <path d="M0,64.832L0.408,64.832L64.832,0.408L64.832,0L0,64.832Z" style="fill:rgb(129,149,168);fill-rule:nonzero;"/>
    </g>
    <g transform="matrix(-0.707107,0.707107,0.707107,0.707107,499.046,93.9273)">
        <path d="M-93.519,-39.025L16.453,-39.025L16.165,-38.737L-93.807,-38.737L-93.519,-39.025Z" style="fill:rgb(129,149,168);fill-rule:nonzero;"/>
    </g>
    <g transform="matrix(-0.707102,0.707111,0.707111,0.707102,395.318,93.9269)">
        <path d="M-93.518,-39.025L16.453,-39.025L16.166,-38.738L-93.806,-38.737L-93.518,-39.025Z" style="fill:rgb(129,149,168);fill-rule:nonzero;"/>
    </g>
    <g transform="matrix(-0.707107,0.707107,0.707107,0.707107,623.523,93.9273)">
        <path d="M-93.519,-39.025L16.453,-39.025L16.165,-38.737L-93.807,-38.737L-93.519,-39.025Z" style="fill:rgb(129,149,168);fill-rule:nonzero;"/>
    </g>
    <g transform="matrix(1,0,0,1,708.772,33.8803)">
        <path d="M0,44.086L0.409,44.086L44.086,0.409L44.086,0L0,44.086Z" style="fill:rgb(129,149,168);fill-rule:nonzero;"/>
    </g>
    <g transform="matrix(-0.707107,0.707107,0.707107,0.707107,519.793,93.9269)">
        <path d="M-93.518,-39.026L16.454,-39.026L16.165,-38.736L-93.807,-38.736L-93.518,-39.026Z" style="fill:rgb(129,149,168);fill-rule:nonzero;"/>
    </g>
    <g transform="matrix(-0.707107,0.707107,0.707107,0.707107,644.272,93.9269)">
        <path d="M-93.518,-39.026L16.454,-39.026L16.165,-38.736L-93.807,-38.736L-93.518,-39.026Z" style="fill:rgb(129,149,168);fill-rule:nonzero;"/>
    </g>
    <g transform="matrix(-0.707102,0.707111,0.707111,0.707102,416.06,93.9269)">
        <path d="M-93.518,-39.025L16.453,-39.025L16.166,-38.737L-93.806,-38.737L-93.518,-39.025Z" style="fill:rgb(129,149,168);fill-rule:nonzero;"/>
    </g>
    <g transform="matrix(1,0,0,1,729.519,54.6273)">
        <path d="M0,23.339L0.409,23.339L23.339,0.409L23.339,0L0,23.339Z" style="fill:rgb(129,149,168);fill-rule:nonzero;"/>
    </g>
    <g transform="matrix(-0.707107,0.707107,0.707107,0.707107,540.537,93.9273)">
        <path d="M-93.519,-39.025L16.453,-39.025L16.165,-38.737L-93.807,-38.737L-93.519,-39.025Z" style="fill:rgb(129,149,168);fill-rule:nonzero;"/>
    </g>
    <g transform="matrix(-0.707107,0.707107,0.707107,0.707107,665.015,93.9269)">
        <path d="M-93.518,-39.026L16.454,-39.026L16.165,-38.736L-93.807,-38.736L-93.518,-39.026Z" style="fill:rgb(129,149,168);fill-rule:nonzero;"/>
    </g>
    <g transform="matrix(-0.707107,0.707107,0.707107,0.707107,436.808,93.9273)">
        <path d="M-93.519,-39.025L16.453,-39.025L16.165,-38.737L-93.807,-38.737L-93.519,-39.025Z" style="fill:rgb(129,149,168);fill-rule:nonzero;"/>
    </g>
    <g transform="matrix(0.707107,0.707107,0.707107,-0.707107,482.222,-16.0448)">
        <path d="M-16.045,-39.025L93.927,-39.025L94.215,-38.737L-15.757,-38.737L-16.045,-39.025Z" style="fill:rgb(129,149,168);fill-rule:nonzero;"/>
    </g>
    <g transform="matrix(0.707107,0.707107,0.707107,-0.707107,585.956,-16.0448)">
        <path d="M-16.045,-39.025L93.927,-39.025L94.215,-38.737L-15.757,-38.737L-16.045,-39.025Z" style="fill:rgb(129,149,168);fill-rule:nonzero;"/>
    </g>
    <g transform="matrix(0.707107,0.707107,0.707107,-0.707107,689.686,-16.0444)">
        <path d="M-16.045,-39.025L93.927,-39.025L94.214,-38.737L-15.757,-38.736L-16.045,-39.025Z" style="fill:rgb(129,149,168);fill-rule:nonzero;"/>
    </g>
    <g transform="matrix(0.707107,0.707107,0.707107,-0.707107,461.477,-16.0444)">
        <path d="M-16.045,-39.025L93.927,-39.025L94.214,-38.737L-15.757,-38.736L-16.045,-39.025Z" style="fill:rgb(129,149,168);fill-rule:nonzero;"/>
    </g>
    <g transform="matrix(0.707107,0.707107,0.707107,-0.707107,565.207,-16.0448)">
        <path d="M-16.045,-39.025L93.927,-39.025L94.215,-38.737L-15.757,-38.737L-16.045,-39.025Z" style="fill:rgb(129,149,168);fill-rule:nonzero;"/>
    </g>
    <g transform="matrix(0.707107,0.707107,0.707107,-0.707107,668.941,-16.0448)">
        <path d="M-16.045,-39.025L93.927,-39.025L94.215,-38.737L-15.756,-38.736L-16.045,-39.025Z" style="fill:rgb(129,149,168);fill-rule:nonzero;"/>
    </g>
    <g transform="matrix(0.707107,0.707107,0.707107,-0.707107,440.731,-16.0444)">
        <path d="M-16.045,-39.025L93.927,-39.025L94.214,-38.737L-15.758,-38.737L-16.045,-39.025Z" style="fill:rgb(129,149,168);fill-rule:nonzero;"/>
    </g>
    <g transform="matrix(0.707107,0.707107,0.707107,-0.707107,544.465,-16.0444)">
        <path d="M-16.045,-39.025L93.927,-39.025L94.214,-38.737L-15.757,-38.736L-16.045,-39.025Z" style="fill:rgb(129,149,168);fill-rule:nonzero;"/>
    </g>
    <g transform="matrix(0.707107,0.707107,0.707107,-0.707107,648.194,-16.0448)">
        <path d="M-16.045,-39.025L93.927,-39.025L94.215,-38.737L-15.757,-38.737L-16.045,-39.025Z" style="fill:rgb(129,149,168);fill-rule:nonzero;"/>
    </g>
    <g transform="matrix(0.707107,0.707107,0.707107,-0.707107,419.981,-16.0448)">
        <path d="M-16.045,-39.025L93.927,-39.025L94.215,-38.737L-15.757,-38.737L-16.045,-39.025Z" style="fill:rgb(129,149,168);fill-rule:nonzero;"/>
    </g>
    <g transform="matrix(0.707102,0.707111,0.707111,-0.707102,523.716,-16.0448)">
        <path d="M-16.045,-39.026L93.926,-39.026L94.215,-38.736L-15.757,-38.737L-16.045,-39.026Z" style="fill:rgb(129,149,168);fill-rule:nonzero;"/>
    </g>
    <g transform="matrix(0.707107,0.707107,0.707107,-0.707107,627.449,-16.0448)">
        <path d="M-16.045,-39.025L93.927,-39.025L94.215,-38.737L-15.756,-38.736L-16.045,-39.025Z" style="fill:rgb(129,149,168);fill-rule:nonzero;"/>
    </g>
    <g transform="matrix(0.707107,0.707107,0.707107,-0.707107,399.234,-16.0444)">
        <path d="M-16.045,-39.025L93.927,-39.025L94.214,-38.737L-15.757,-38.736L-16.045,-39.025Z" style="fill:rgb(129,149,168);fill-rule:nonzero;"/>
    </g>
    <g transform="matrix(0.707107,0.707107,0.707107,-0.707107,502.969,-16.0448)">
        <path d="M-16.045,-39.025L93.927,-39.025L94.215,-38.737L-15.757,-38.737L-16.045,-39.025Z" style="fill:rgb(129,149,168);fill-rule:nonzero;"/>
    </g>
    <g transform="matrix(0.707107,0.707107,0.707107,-0.707107,606.698,-16.0448)">
        <path d="M-16.045,-39.025L93.927,-39.025L94.215,-38.737L-15.756,-38.736L-16.045,-39.025Z" style="fill:rgb(129,149,168);fill-rule:nonzero;"/>
    </g>
    <g transform="matrix(0.707107,0.707107,0.707107,-0.707107,171.029,-16.0444)">
        <path d="M-16.045,-39.025L93.927,-39.025L94.214,-38.737L-15.758,-38.738L-16.045,-39.025Z" style="fill:rgb(129,149,168);fill-rule:nonzero;"/>
    </g>
    <g transform="matrix(0.707107,0.707107,0.707107,-0.707107,274.758,-16.0444)">
        <path d="M-16.045,-39.025L93.927,-39.025L94.214,-38.737L-15.758,-38.737L-16.045,-39.025Z" style="fill:rgb(129,149,168);fill-rule:nonzero;"/>
    </g>
    <g transform="matrix(0.707102,0.707111,0.707111,-0.707102,378.493,-16.0448)">
        <path d="M-16.045,-39.026L93.926,-39.026L94.215,-38.736L-15.757,-38.738L-16.045,-39.026Z" style="fill:rgb(129,149,168);fill-rule:nonzero;"/>
    </g>
    <g transform="matrix(0.707107,0.707107,0.707107,-0.707107,743.294,-3.75704)">
        <path d="M-3.962,-9.564L23.09,-9.564L22.8,-9.275L-3.672,-9.275L-3.962,-9.564Z" style="fill:rgb(129,149,168);fill-rule:nonzero;"/>
    </g>
    <g transform="matrix(0.707107,0.707107,0.707107,-0.707107,254.011,-16.0444)">
        <path d="M-16.045,-39.025L93.927,-39.025L94.214,-38.737L-15.758,-38.737L-16.045,-39.025Z" style="fill:rgb(129,149,168);fill-rule:nonzero;"/>
    </g>
    <g transform="matrix(0.707102,0.707111,0.707111,-0.707102,357.746,-16.0444)">
        <path d="M-16.045,-39.025L93.926,-39.025L94.214,-38.737L-15.758,-38.737L-16.045,-39.025Z" style="fill:rgb(129,149,168);fill-rule:nonzero;"/>
    </g>
    <g transform="matrix(0.707107,0.707107,0.707107,-0.707107,732.922,-8.05285)">
        <path d="M-8.257,-19.935L48.127,-19.935L47.838,-19.646L-7.968,-19.646L-8.257,-19.935Z" style="fill:rgb(129,149,168);fill-rule:nonzero;"/>
    </g>
    <g transform="matrix(0.707107,0.707107,0.707107,-0.707107,233.267,-16.0444)">
        <path d="M-16.045,-39.025L93.927,-39.025L94.214,-38.737L-15.758,-38.737L-16.045,-39.025Z" style="fill:rgb(129,149,168);fill-rule:nonzero;"/>
    </g>
    <g transform="matrix(0.707107,0.707107,0.707107,-0.707107,336.996,-16.0448)">
        <path d="M-16.045,-39.025L93.927,-39.025L94.215,-38.737L-15.756,-38.736L-16.045,-39.025Z" style="fill:rgb(129,149,168);fill-rule:nonzero;"/>
    </g>
    <g transform="matrix(0.707107,0.707107,0.707107,-0.707107,722.548,-12.3501)">
        <path d="M-12.555,-30.31L73.174,-30.31L72.885,-30.021L-12.266,-30.021L-12.555,-30.31Z" style="fill:rgb(129,149,168);fill-rule:nonzero;"/>
    </g>
    <g transform="matrix(0.707107,0.707107,0.707107,-0.707107,212.52,-16.0444)">
        <path d="M-16.045,-39.025L93.927,-39.025L94.214,-38.737L-15.758,-38.737L-16.045,-39.025Z" style="fill:rgb(129,149,168);fill-rule:nonzero;"/>
    </g>
    <g transform="matrix(0.707107,0.707107,0.707107,-0.707107,316.254,-16.0444)">
        <path d="M-16.045,-39.025L93.927,-39.025L94.214,-38.737L-15.758,-38.737L-16.045,-39.025Z" style="fill:rgb(129,149,168);fill-rule:nonzero;"/>
    </g>
    <g transform="matrix(0.707107,0.707107,0.707107,-0.707107,710.433,-16.0448)">
        <path d="M-16.045,-39.025L93.927,-39.025L94.215,-38.737L-15.757,-38.737L-16.045,-39.025Z" style="fill:rgb(129,149,168);fill-rule:nonzero;"/>
    </g>
    <g transform="matrix(0.707107,0.707107,0.707107,-0.707107,191.775,-16.0448)">
        <path d="M-16.045,-39.025L93.927,-39.025L94.215,-38.737L-15.757,-38.737L-16.045,-39.025Z" style="fill:rgb(129,149,168);fill-rule:nonzero;"/>
    </g>
    <g transform="matrix(0.707107,0.707107,0.707107,-0.707107,295.505,-16.0444)">
        <path d="M-16.045,-39.025L93.927,-39.025L94.214,-38.737L-15.758,-38.737L-16.045,-39.025Z" style="fill:rgb(129,149,168);fill-rule:nonzero;"/>
    </g>
    <g transform="matrix(0.707107,0.707107,0.707107,-0.707107,11.6009,50.0437)">
        <path d="M-4.552,-11.566L27.922,-11.566L28.21,-11.278L-4.84,-11.278L-4.552,-11.566Z" style="fill:rgb(129,149,168);fill-rule:nonzero;"/>
    </g>
    <g transform="matrix(0.707107,0.707107,0.707107,-0.707107,88.0749,-16.0444)">
        <path d="M-16.045,-39.025L93.927,-39.025L94.214,-38.737L-15.758,-38.737L-16.045,-39.025Z" style="fill:rgb(129,149,168);fill-rule:nonzero;"/>
    </g>
    <g transform="matrix(0.707107,0.707107,0.707107,-0.707107,67.328,-16.0448)">
        <path d="M-16.045,-39.025L93.927,-39.025L94.215,-38.737L-15.757,-38.737L-16.045,-39.025Z" style="fill:rgb(129,149,168);fill-rule:nonzero;"/>
    </g>
    <g transform="matrix(0.707107,0.707107,0.707107,-0.707107,46.5839,-16.0441)">
        <path d="M-16.046,-39.025L93.926,-39.025L94.214,-38.737L-15.758,-38.737L-16.046,-39.025Z" style="fill:rgb(129,149,168);fill-rule:nonzero;"/>
    </g>
    <g transform="matrix(0.707107,0.707107,0.707107,-0.707107,150.313,-16.0444)">
        <path d="M-16.045,-39.025L93.927,-39.025L94.214,-38.737L-15.758,-38.737L-16.045,-39.025Z" style="fill:rgb(129,149,168);fill-rule:nonzero;"/>
    </g>
    <g transform="matrix(0.707107,0.707107,0.707107,-0.707107,32.3464,-0.0404605)">
        <path d="M-13.145,-32.311L78.006,-32.311L78.294,-32.024L-13.433,-32.024L-13.145,-32.311Z" style="fill:rgb(129,149,168);fill-rule:nonzero;"/>
    </g>
    <g transform="matrix(0.707107,0.707107,0.707107,-0.707107,129.571,-16.0441)">
        <path d="M-16.046,-39.025L93.926,-39.025L94.214,-38.737L-15.758,-38.737L-16.046,-39.025Z" style="fill:rgb(129,149,168);fill-rule:nonzero;"/>
    </g>
    <g transform="matrix(0.707107,0.707107,0.707107,-0.707107,21.9744,24.9999)">
        <path d="M-8.849,-21.939L52.966,-21.939L53.254,-21.652L-9.137,-21.652L-8.849,-21.939Z" style="fill:rgb(129,149,168);fill-rule:nonzero;"/>
    </g>
    <g transform="matrix(0.707107,0.707107,0.707107,-0.707107,108.822,-16.0444)">
        <path d="M-16.045,-39.025L93.927,-39.025L94.214,-38.737L-15.758,-38.737L-16.045,-39.025Z" style="fill:rgb(129,149,168);fill-rule:nonzero;"/>
    </g>
    <g transform="matrix(-1,-0,0,1,703.527,-82.0821)">
        <rect x="377.442" y="86.532" width="2.837" height="2.837" style="fill:rgb(129,149,168);"/>
    </g>
    <g transform="matrix(-1,-0,0,1,745.021,-82.0601)">
        <rect x="398.189" y="86.521" width="2.837" height="2.837" style="fill:rgb(129,149,168);"/>
    </g>
    <g transform="matrix(-1,-0,0,1,786.517,-82.0821)">
        <rect x="418.937" y="86.532" width="2.837" height="2.837" style="fill:rgb(129,149,168);"/>
    </g>
    <g transform="matrix(-1,-0,0,1,828.014,-82.0601)">
        <rect x="439.686" y="86.521" width="2.836" height="2.837" style="fill:rgb(129,149,168);"/>
    </g>
    <g transform="matrix(-1,-0,0,1,869.509,-82.0601)">
        <rect x="460.433" y="86.521" width="2.837" height="2.837" style="fill:rgb(129,149,168);"/>
    </g>
    <g transform="matrix(-1,-0,0,1,911.003,-82.0821)">
        <rect x="481.18" y="86.532" width="2.837" height="2.837" style="fill:rgb(129,149,168);"/>
    </g>
    <g transform="matrix(-1,-0,0,1,952.5,-82.0601)">
        <rect x="501.929" y="86.521" width="2.836" height="2.837" style="fill:rgb(129,149,168);"/>
    </g>
    <g transform="matrix(-1,-0,0,1,703.527,-40.9261)">
        <rect x="377.442" y="65.954" width="2.837" height="2.837" style="fill:rgb(129,149,168);"/>
    </g>
    <g transform="matrix(-1,-0,0,1,745.021,-40.9061)">
        <rect x="398.189" y="65.944" width="2.837" height="2.837" style="fill:rgb(129,149,168);"/>
    </g>
    <g transform="matrix(-1,-0,0,1,786.517,-40.9261)">
        <rect x="418.937" y="65.954" width="2.837" height="2.837" style="fill:rgb(129,149,168);"/>
    </g>
    <g transform="matrix(-1,-0,0,1,828.014,-40.9061)">
        <rect x="439.686" y="65.944" width="2.836" height="2.837" style="fill:rgb(129,149,168);"/>
    </g>
    <g transform="matrix(-1,-0,0,1,869.509,-40.9061)">
        <rect x="460.433" y="65.944" width="2.837" height="2.837" style="fill:rgb(129,149,168);"/>
    </g>
    <g transform="matrix(-1,-0,0,1,911.003,-40.9261)">
        <rect x="481.18" y="65.954" width="2.837" height="2.837" style="fill:rgb(129,149,168);"/>
    </g>
    <g transform="matrix(-1,-0,0,1,952.5,-40.9061)">
        <rect x="501.929" y="65.944" width="2.836" height="2.837" style="fill:rgb(129,149,168);"/>
    </g>
    <g transform="matrix(-1,-0,0,1,703.527,1.3699)">
        <rect x="377.442" y="44.806" width="2.837" height="2.837" style="fill:rgb(129,149,168);"/>
    </g>
    <g transform="matrix(-1,-0,0,1,745.021,1.3899)">
        <rect x="398.189" y="44.796" width="2.837" height="2.837" style="fill:rgb(129,149,168);"/>
    </g>
    <g transform="matrix(-1,-0,0,1,786.517,1.3699)">
        <rect x="418.937" y="44.806" width="2.837" height="2.837" style="fill:rgb(129,149,168);"/>
    </g>
    <g transform="matrix(-1,-0,0,1,828.014,1.3899)">
        <rect x="439.686" y="44.796" width="2.836" height="2.837" style="fill:rgb(129,149,168);"/>
    </g>
    <g transform="matrix(-1,-0,0,1,869.509,1.3899)">
        <rect x="460.433" y="44.796" width="2.837" height="2.837" style="fill:rgb(129,149,168);"/>
    </g>
    <g transform="matrix(-1,-0,0,1,911.003,1.3699)">
        <rect x="481.18" y="44.806" width="2.837" height="2.837" style="fill:rgb(129,149,168);"/>
    </g>
    <g transform="matrix(-1,-0,0,1,952.5,1.3899)">
        <rect x="501.929" y="44.796" width="2.836" height="2.837" style="fill:rgb(129,149,168);"/>
    </g>
    <g transform="matrix(-1,-0,0,1,703.527,42.5239)">
        <rect x="377.442" y="24.229" width="2.837" height="2.837" style="fill:rgb(129,149,168);"/>
    </g>
    <g transform="matrix(-1,-0,0,1,745.021,42.5459)">
        <rect x="398.189" y="24.218" width="2.837" height="2.837" style="fill:rgb(129,149,168);"/>
    </g>
    <g transform="matrix(-1,-0,0,1,786.517,42.5239)">
        <rect x="418.937" y="24.229" width="2.837" height="2.837" style="fill:rgb(129,149,168);"/>
    </g>
    <g transform="matrix(-1,-0,0,1,828.014,42.5459)">
        <rect x="439.686" y="24.218" width="2.836" height="2.837" style="fill:rgb(129,149,168);"/>
    </g>
    <g transform="matrix(-1,-0,0,1,869.509,42.5459)">
        <rect x="460.433" y="24.218" width="2.837" height="2.837" style="fill:rgb(129,149,168);"/>
    </g>
    <g transform="matrix(-1,-0,0,1,911.003,42.5239)">
        <rect x="481.18" y="24.229" width="2.837" height="2.837" style="fill:rgb(129,149,168);"/>
    </g>
    <g transform="matrix(-1,-0,0,1,952.5,42.5459)">
        <rect x="501.929" y="24.218" width="2.836" height="2.837" style="fill:rgb(129,149,168);"/>
    </g>
    <g transform="matrix(-1,-0,0,1,454.555,-82.0821)">
        <rect x="252.956" y="86.532" width="2.837" height="2.837" style="fill:rgb(129,149,168);"/>
    </g>
    <g transform="matrix(-1,-0,0,1,496.049,-82.0601)">
        <rect x="273.703" y="86.521" width="2.837" height="2.837" style="fill:rgb(129,149,168);"/>
    </g>
    <g transform="matrix(-1,-0,0,1,537.546,-82.0821)">
        <rect x="294.452" y="86.532" width="2.836" height="2.837" style="fill:rgb(129,149,168);"/>
    </g>
    <g transform="matrix(-1,-0,0,1,579.041,-82.0601)">
        <rect x="315.199" y="86.521" width="2.837" height="2.837" style="fill:rgb(129,149,168);"/>
    </g>
    <g transform="matrix(-1,-0,0,1,620.535,-82.0601)">
        <rect x="335.946" y="86.521" width="2.837" height="2.837" style="fill:rgb(129,149,168);"/>
    </g>
    <g transform="matrix(-1,-0,0,1,662.032,-82.0821)">
        <rect x="356.695" y="86.532" width="2.836" height="2.837" style="fill:rgb(129,149,168);"/>
    </g>
    <g transform="matrix(-1,-0,0,1,205.581,-82.0821)">
        <rect x="128.469" y="86.532" width="2.837" height="2.837" style="fill:rgb(129,149,168);"/>
    </g>
    <g transform="matrix(-1,-0,0,1,247.078,-82.0601)">
        <rect x="149.218" y="86.521" width="2.836" height="2.837" style="fill:rgb(129,149,168);"/>
    </g>
    <g transform="matrix(-1,-0,0,1,288.573,-82.0821)">
        <rect x="169.965" y="86.532" width="2.837" height="2.837" style="fill:rgb(129,149,168);"/>
    </g>
    <g transform="matrix(-1,-0,0,1,330.067,-82.0601)">
        <rect x="190.712" y="86.521" width="2.837" height="2.837" style="fill:rgb(129,149,168);"/>
    </g>
    <g transform="matrix(-1,-0,0,1,371.564,-82.0601)">
        <rect x="211.461" y="86.521" width="2.836" height="2.837" style="fill:rgb(129,149,168);"/>
    </g>
    <g transform="matrix(-1,-0,0,1,413.059,-82.0821)">
        <rect x="232.208" y="86.532" width="2.837" height="2.837" style="fill:rgb(129,149,168);"/>
    </g>
    <g transform="matrix(-1,-0,0,1,454.555,-40.9261)">
        <rect x="252.956" y="65.954" width="2.837" height="2.837" style="fill:rgb(129,149,168);"/>
    </g>
    <g transform="matrix(-1,-0,0,1,496.049,-40.9061)">
        <rect x="273.703" y="65.944" width="2.837" height="2.837" style="fill:rgb(129,149,168);"/>
    </g>
    <g transform="matrix(-1,-0,0,1,537.546,-40.9261)">
        <rect x="294.452" y="65.954" width="2.836" height="2.837" style="fill:rgb(129,149,168);"/>
    </g>
    <g transform="matrix(-1,-0,0,1,579.041,-40.9061)">
        <rect x="315.199" y="65.944" width="2.837" height="2.837" style="fill:rgb(129,149,168);"/>
    </g>
    <g transform="matrix(-1,-0,0,1,620.535,-40.9061)">
        <rect x="335.946" y="65.944" width="2.837" height="2.837" style="fill:rgb(129,149,168);"/>
    </g>
    <g transform="matrix(-1,-0,0,1,662.032,-40.9261)">
        <rect x="356.695" y="65.954" width="2.836" height="2.837" style="fill:rgb(129,149,168);"/>
    </g>
    <g transform="matrix(-1,-0,0,1,454.555,1.3699)">
        <rect x="252.956" y="44.806" width="2.837" height="2.837" style="fill:rgb(129,149,168);"/>
    </g>
    <g transform="matrix(-1,-0,0,1,496.049,1.3899)">
        <rect x="273.703" y="44.796" width="2.837" height="2.837" style="fill:rgb(129,149,168);"/>
    </g>
    <g transform="matrix(-1,-0,0,1,537.546,1.3699)">
        <rect x="294.452" y="44.806" width="2.836" height="2.837" style="fill:rgb(129,149,168);"/>
    </g>
    <g transform="matrix(-1,-0,0,1,579.041,1.3899)">
        <rect x="315.199" y="44.796" width="2.837" height="2.837" style="fill:rgb(129,149,168);"/>
    </g>
    <g transform="matrix(-1,-0,0,1,620.535,1.3899)">
        <rect x="335.946" y="44.796" width="2.837" height="2.837" style="fill:rgb(129,149,168);"/>
    </g>
    <g transform="matrix(-1,-0,0,1,662.032,1.3699)">
        <rect x="356.695" y="44.806" width="2.836" height="2.837" style="fill:rgb(129,149,168);"/>
    </g>
    <g transform="matrix(-1,-0,0,1,454.555,42.5239)">
        <rect x="252.956" y="24.229" width="2.837" height="2.837" style="fill:rgb(129,149,168);"/>
    </g>
    <g transform="matrix(-1,-0,0,1,496.049,42.5459)">
        <rect x="273.703" y="24.218" width="2.837" height="2.837" style="fill:rgb(129,149,168);"/>
    </g>
    <g transform="matrix(-1,-0,0,1,537.546,42.5239)">
        <rect x="294.452" y="24.229" width="2.836" height="2.837" style="fill:rgb(129,149,168);"/>
    </g>
    <g transform="matrix(-1,-0,0,1,579.041,42.5459)">
        <rect x="315.199" y="24.218" width="2.837" height="2.837" style="fill:rgb(129,149,168);"/>
    </g>
    <g transform="matrix(-1,-0,0,1,620.535,42.5459)">
        <rect x="335.946" y="24.218" width="2.837" height="2.837" style="fill:rgb(129,149,168);"/>
    </g>
    <g transform="matrix(-1,-0,0,1,662.032,42.5239)">
        <rect x="356.695" y="24.229" width="2.836" height="2.837" style="fill:rgb(129,149,168);"/>
    </g>
    <g transform="matrix(-1,-0,0,1,1201.47,-82.0821)">
        <rect x="626.414" y="86.532" width="2.837" height="2.837" style="fill:rgb(129,149,168);"/>
    </g>
    <g transform="matrix(-1,-0,0,1,1242.97,-82.0601)">
        <rect x="647.163" y="86.521" width="2.836" height="2.837" style="fill:rgb(129,149,168);"/>
    </g>
    <g transform="matrix(-1,-0,0,1,1284.46,-82.0821)">
        <rect x="667.91" y="86.532" width="2.837" height="2.837" style="fill:rgb(129,149,168);"/>
    </g>
    <g transform="matrix(-1,-0,0,1,1325.96,-82.0601)">
        <rect x="688.657" y="86.521" width="2.837" height="2.837" style="fill:rgb(129,149,168);"/>
    </g>
    <g transform="matrix(-1,-0,0,1,1367.45,-82.0601)">
        <rect x="709.405" y="86.521" width="2.837" height="2.837" style="fill:rgb(129,149,168);"/>
    </g>
    <g transform="matrix(-1,-0,0,1,1408.95,-82.0821)">
        <rect x="730.153" y="86.532" width="2.836" height="2.837" style="fill:rgb(129,149,168);"/>
    </g>
    <g transform="matrix(-1,-0,0,1,1450.44,-82.0601)">
        <rect x="750.9" y="86.521" width="2.837" height="2.837" style="fill:rgb(129,149,168);"/>
    </g>
    <g transform="matrix(-1,-0,0,1,1201.47,-40.9261)">
        <rect x="626.414" y="65.954" width="2.837" height="2.837" style="fill:rgb(129,149,168);"/>
    </g>
    <g transform="matrix(-1,-0,0,1,1242.97,-40.9061)">
        <rect x="647.163" y="65.944" width="2.836" height="2.837" style="fill:rgb(129,149,168);"/>
    </g>
    <g transform="matrix(-1,-0,0,1,1284.46,-40.9261)">
        <rect x="667.91" y="65.954" width="2.837" height="2.837" style="fill:rgb(129,149,168);"/>
    </g>
    <g transform="matrix(-1,-0,0,1,1325.96,-40.9061)">
        <rect x="688.657" y="65.944" width="2.837" height="2.837" style="fill:rgb(129,149,168);"/>
    </g>
    <g transform="matrix(-1,-0,0,1,1367.45,-40.9061)">
        <rect x="709.405" y="65.944" width="2.837" height="2.837" style="fill:rgb(129,149,168);"/>
    </g>
    <g transform="matrix(-1,-0,0,1,1408.95,-40.9261)">
        <rect x="730.153" y="65.954" width="2.836" height="2.837" style="fill:rgb(129,149,168);"/>
    </g>
    <g transform="matrix(-1,-0,0,1,1450.44,-40.9061)">
        <rect x="750.9" y="65.944" width="2.837" height="2.837" style="fill:rgb(129,149,168);"/>
    </g>
    <g transform="matrix(-1,-0,0,1,1201.47,1.3699)">
        <rect x="626.414" y="44.806" width="2.837" height="2.837" style="fill:rgb(129,149,168);"/>
    </g>
    <g transform="matrix(-1,-0,0,1,1242.97,1.3899)">
        <rect x="647.163" y="44.796" width="2.836" height="2.837" style="fill:rgb(129,149,168);"/>
    </g>
    <g transform="matrix(-1,-0,0,1,1284.46,1.3699)">
        <rect x="667.91" y="44.806" width="2.837" height="2.837" style="fill:rgb(129,149,168);"/>
    </g>
    <g transform="matrix(-1,-0,0,1,1325.96,1.3899)">
        <rect x="688.657" y="44.796" width="2.837" height="2.837" style="fill:rgb(129,149,168);"/>
    </g>
    <g transform="matrix(-1,-0,0,1,1367.45,1.3899)">
        <rect x="709.405" y="44.796" width="2.837" height="2.837" style="fill:rgb(129,149,168);"/>
    </g>
    <g transform="matrix(-1,-0,0,1,1408.95,1.3699)">
        <rect x="730.153" y="44.806" width="2.836" height="2.837" style="fill:rgb(129,149,168);"/>
    </g>
    <g transform="matrix(-1,-0,0,1,1450.44,1.3899)">
        <rect x="750.9" y="44.796" width="2.837" height="2.837" style="fill:rgb(129,149,168);"/>
    </g>
    <g transform="matrix(-1,-0,0,1,1201.47,42.5239)">
        <rect x="626.414" y="24.229" width="2.837" height="2.837" style="fill:rgb(129,149,168);"/>
    </g>
    <g transform="matrix(-1,-0,0,1,1242.97,42.5459)">
        <rect x="647.163" y="24.218" width="2.836" height="2.837" style="fill:rgb(129,149,168);"/>
    </g>
    <g transform="matrix(-1,-0,0,1,1284.46,42.5239)">
        <rect x="667.91" y="24.229" width="2.837" height="2.837" style="fill:rgb(129,149,168);"/>
    </g>
    <g transform="matrix(-1,-0,0,1,1325.96,42.5459)">
        <rect x="688.657" y="24.218" width="2.837" height="2.837" style="fill:rgb(129,149,168);"/>
    </g>
    <g transform="matrix(-1,-0,0,1,1367.45,42.5459)">
        <rect x="709.405" y="24.218" width="2.837" height="2.837" style="fill:rgb(129,149,168);"/>
    </g>
    <g transform="matrix(-1,-0,0,1,1408.95,42.5239)">
        <rect x="730.153" y="24.229" width="2.836" height="2.837" style="fill:rgb(129,149,168);"/>
    </g>
    <g transform="matrix(-1,-0,0,1,1450.44,42.5459)">
        <rect x="750.9" y="24.218" width="2.837" height="2.837" style="fill:rgb(129,149,168);"/>
    </g>
    <g transform="matrix(-1,-0,0,1,952.5,-82.0821)">
        <rect x="501.929" y="86.532" width="2.836" height="2.837" style="fill:rgb(129,149,168);"/>
    </g>
    <g transform="matrix(-1,-0,0,1,993.995,-82.0601)">
        <rect x="522.676" y="86.521" width="2.837" height="2.837" style="fill:rgb(129,149,168);"/>
    </g>
    <g transform="matrix(-1,-0,0,1,1035.49,-82.0821)">
        <rect x="543.423" y="86.532" width="2.837" height="2.837" style="fill:rgb(129,149,168);"/>
    </g>
    <g transform="matrix(-1,-0,0,1,1076.98,-82.0601)">
        <rect x="564.171" y="86.521" width="2.837" height="2.837" style="fill:rgb(129,149,168);"/>
    </g>
    <g transform="matrix(-1,-0,0,1,1118.48,-82.0601)">
        <rect x="584.919" y="86.521" width="2.836" height="2.837" style="fill:rgb(129,149,168);"/>
    </g>
    <g transform="matrix(-1,-0,0,1,1159.98,-82.0821)">
        <rect x="605.667" y="86.532" width="2.837" height="2.837" style="fill:rgb(129,149,168);"/>
    </g>
    <g transform="matrix(-1,-0,0,1,993.995,-40.9061)">
        <rect x="522.676" y="65.944" width="2.837" height="2.837" style="fill:rgb(129,149,168);"/>
    </g>
    <g transform="matrix(-1,-0,0,1,1035.49,-40.9261)">
        <rect x="543.423" y="65.954" width="2.837" height="2.837" style="fill:rgb(129,149,168);"/>
    </g>
    <g transform="matrix(-1,-0,0,1,1076.98,-40.9061)">
        <rect x="564.171" y="65.944" width="2.837" height="2.837" style="fill:rgb(129,149,168);"/>
    </g>
    <g transform="matrix(-1,-0,0,1,1118.48,-40.9061)">
        <rect x="584.919" y="65.944" width="2.836" height="2.837" style="fill:rgb(129,149,168);"/>
    </g>
    <g transform="matrix(-1,-0,0,1,1159.98,-40.9261)">
        <rect x="605.667" y="65.954" width="2.837" height="2.837" style="fill:rgb(129,149,168);"/>
    </g>
    <g transform="matrix(-1,-0,0,1,993.995,1.3899)">
        <rect x="522.676" y="44.796" width="2.837" height="2.837" style="fill:rgb(129,149,168);"/>
    </g>
    <g transform="matrix(-1,-0,0,1,1035.49,1.3699)">
        <rect x="543.423" y="44.806" width="2.837" height="2.837" style="fill:rgb(129,149,168);"/>
    </g>
    <g transform="matrix(-1,-0,0,1,1076.98,1.3899)">
        <rect x="564.171" y="44.796" width="2.837" height="2.837" style="fill:rgb(129,149,168);"/>
    </g>
    <g transform="matrix(-1,-0,0,1,1118.48,1.3899)">
        <rect x="584.919" y="44.796" width="2.836" height="2.837" style="fill:rgb(129,149,168);"/>
    </g>
    <g transform="matrix(-1,-0,0,1,1159.98,1.3699)">
        <rect x="605.667" y="44.806" width="2.837" height="2.837" style="fill:rgb(129,149,168);"/>
    </g>
    <g transform="matrix(-1,-0,0,1,993.995,42.5459)">
        <rect x="522.676" y="24.218" width="2.837" height="2.837" style="fill:rgb(129,149,168);"/>
    </g>
    <g transform="matrix(-1,-0,0,1,1035.49,42.5239)">
        <rect x="543.423" y="24.229" width="2.837" height="2.837" style="fill:rgb(129,149,168);"/>
    </g>
    <g transform="matrix(-1,-0,0,1,1076.98,42.5459)">
        <rect x="564.171" y="24.218" width="2.837" height="2.837" style="fill:rgb(129,149,168);"/>
    </g>
    <g transform="matrix(-1,-0,0,1,1118.48,42.5459)">
        <rect x="584.919" y="24.218" width="2.836" height="2.837" style="fill:rgb(129,149,168);"/>
    </g>
    <g transform="matrix(-1,-0,0,1,1159.98,42.5239)">
        <rect x="605.667" y="24.229" width="2.837" height="2.837" style="fill:rgb(129,149,168);"/>
    </g>
    <g transform="matrix(-1,-0,0,1,205.581,-40.9261)">
        <rect x="128.469" y="65.954" width="2.837" height="2.837" style="fill:rgb(129,149,168);"/>
    </g>
    <g transform="matrix(-1,-0,0,1,247.078,-40.9061)">
        <rect x="149.218" y="65.944" width="2.836" height="2.837" style="fill:rgb(129,149,168);"/>
    </g>
    <g transform="matrix(-1,-0,0,1,288.573,-40.9261)">
        <rect x="169.965" y="65.954" width="2.837" height="2.837" style="fill:rgb(129,149,168);"/>
    </g>
    <g transform="matrix(-1,-0,0,1,330.067,-40.9061)">
        <rect x="190.712" y="65.944" width="2.837" height="2.837" style="fill:rgb(129,149,168);"/>
    </g>
    <g transform="matrix(-1,-0,0,1,371.564,-40.9061)">
        <rect x="211.461" y="65.944" width="2.836" height="2.837" style="fill:rgb(129,149,168);"/>
    </g>
    <g transform="matrix(-1,-0,0,1,413.059,-40.9261)">
        <rect x="232.208" y="65.954" width="2.837" height="2.837" style="fill:rgb(129,149,168);"/>
    </g>
    <g transform="matrix(-1,-0,0,1,205.581,1.3699)">
        <rect x="128.469" y="44.806" width="2.837" height="2.837" style="fill:rgb(129,149,168);"/>
    </g>
    <g transform="matrix(-1,-0,0,1,247.078,1.3899)">
        <rect x="149.218" y="44.796" width="2.836" height="2.837" style="fill:rgb(129,149,168);"/>
    </g>
    <g transform="matrix(-1,-0,0,1,288.573,1.3699)">
        <rect x="169.965" y="44.806" width="2.837" height="2.837" style="fill:rgb(129,149,168);"/>
    </g>
    <g transform="matrix(-1,-0,0,1,330.067,1.3899)">
        <rect x="190.712" y="44.796" width="2.837" height="2.837" style="fill:rgb(129,149,168);"/>
    </g>
    <g transform="matrix(-1,-0,0,1,371.564,1.3899)">
        <rect x="211.461" y="44.796" width="2.836" height="2.837" style="fill:rgb(129,149,168);"/>
    </g>
    <g transform="matrix(-1,-0,0,1,413.059,1.3699)">
        <rect x="232.208" y="44.806" width="2.837" height="2.837" style="fill:rgb(129,149,168);"/>
    </g>
    <g transform="matrix(-1,-0,0,1,205.581,42.5239)">
        <rect x="128.469" y="24.229" width="2.837" height="2.837" style="fill:rgb(129,149,168);"/>
    </g>
    <g transform="matrix(-1,-0,0,1,247.078,42.5459)">
        <rect x="149.218" y="24.218" width="2.836" height="2.837" style="fill:rgb(129,149,168);"/>
    </g>
    <g transform="matrix(-1,-0,0,1,288.573,42.5239)">
        <rect x="169.965" y="24.229" width="2.837" height="2.837" style="fill:rgb(129,149,168);"/>
    </g>
    <g transform="matrix(-1,-0,0,1,330.067,42.5459)">
        <rect x="190.712" y="24.218" width="2.837" height="2.837" style="fill:rgb(129,149,168);"/>
    </g>
    <g transform="matrix(-1,-0,0,1,371.564,42.5459)">
        <rect x="211.461" y="24.218" width="2.836" height="2.837" style="fill:rgb(129,149,168);"/>
    </g>
    <g transform="matrix(-1,-0,0,1,413.059,42.5239)">
        <rect x="232.208" y="24.229" width="2.837" height="2.837" style="fill:rgb(129,149,168);"/>
    </g>
    <g transform="matrix(-1,-0,0,1,81.0959,-82.0601)">
        <rect x="66.227" y="86.521" width="2.836" height="2.837" style="fill:rgb(129,149,168);"/>
    </g>
    <g transform="matrix(-1,-0,0,1,122.591,-82.0601)">
        <rect x="86.974" y="86.521" width="2.837" height="2.837" style="fill:rgb(129,149,168);"/>
    </g>
    <g transform="matrix(-1,-0,0,1,164.087,-82.0821)">
        <rect x="107.722" y="86.532" width="2.837" height="2.837" style="fill:rgb(129,149,168);"/>
    </g>
    <g transform="matrix(-1,-0,0,1,81.0959,-40.9061)">
        <rect x="66.227" y="65.944" width="2.836" height="2.837" style="fill:rgb(129,149,168);"/>
    </g>
    <g transform="matrix(-1,-0,0,1,122.591,-40.9061)">
        <rect x="86.974" y="65.944" width="2.837" height="2.837" style="fill:rgb(129,149,168);"/>
    </g>
    <g transform="matrix(-1,-0,0,1,164.087,-40.9261)">
        <rect x="107.722" y="65.954" width="2.837" height="2.837" style="fill:rgb(129,149,168);"/>
    </g>
    <g transform="matrix(-1,-0,0,1,81.0959,1.3899)">
        <rect x="66.227" y="44.796" width="2.836" height="2.837" style="fill:rgb(129,149,168);"/>
    </g>
    <g transform="matrix(-1,-0,0,1,122.591,1.3899)">
        <rect x="86.974" y="44.796" width="2.837" height="2.837" style="fill:rgb(129,149,168);"/>
    </g>
    <g transform="matrix(-1,-0,0,1,164.087,1.3699)">
        <rect x="107.722" y="44.806" width="2.837" height="2.837" style="fill:rgb(129,149,168);"/>
    </g>
    <g transform="matrix(-1,-0,0,1,81.0959,42.5459)">
        <rect x="66.227" y="24.218" width="2.836" height="2.837" style="fill:rgb(129,149,168);"/>
    </g>
    <g transform="matrix(-1,-0,0,1,122.591,42.5459)">
        <rect x="86.974" y="24.218" width="2.837" height="2.837" style="fill:rgb(129,149,168);"/>
    </g>
    <g transform="matrix(-1,-0,0,1,164.087,42.5239)">
        <rect x="107.722" y="24.229" width="2.837" height="2.837" style="fill:rgb(129,149,168);"/>
    </g>
    <g transform="matrix(-1,-0,0,1,1491.68,-81.9601)">
        <rect x="771.517" y="86.471" width="2.837" height="2.837" style="fill:rgb(129,149,168);"/>
    </g>
    <g transform="matrix(-1,-0,0,1,1533.17,-81.9801)">
        <rect x="792.265" y="86.481" width="2.837" height="2.837" style="fill:rgb(129,149,168);"/>
    </g>
    <g transform="matrix(-1,-0,0,1,1491.68,-40.8061)">
        <rect x="771.517" y="65.894" width="2.837" height="2.837" style="fill:rgb(129,149,168);"/>
    </g>
    <g transform="matrix(-1,-0,0,1,1533.17,-40.8261)">
        <rect x="792.265" y="65.904" width="2.837" height="2.837" style="fill:rgb(129,149,168);"/>
    </g>
    <g transform="matrix(-1,-0,0,1,1491.68,1.4909)">
        <rect x="771.517" y="44.746" width="2.837" height="2.836" style="fill:rgb(129,149,168);"/>
    </g>
    <g transform="matrix(-1,-0,0,1,1533.17,1.4699)">
        <rect x="792.265" y="44.756" width="2.837" height="2.837" style="fill:rgb(129,149,168);"/>
    </g>
    <g transform="matrix(-1,-0,0,1,1491.68,42.6469)">
        <rect x="771.517" y="24.168" width="2.837" height="2.836" style="fill:rgb(129,149,168);"/>
    </g>
    <g transform="matrix(-1,-0,0,1,1533.17,42.6259)">
        <rect x="792.265" y="24.178" width="2.837" height="2.837" style="fill:rgb(129,149,168);"/>
    </g>
    <g transform="matrix(-0.707102,0.707111,0.707111,0.707102,996.93,93.9273)">
        <path d="M-93.519,-39.025L16.453,-39.025L16.165,-38.737L-93.807,-38.737L-93.519,-39.025Z" style="fill:rgb(129,149,168);fill-rule:nonzero;"/>
    </g>
    <g transform="matrix(-0.707107,0.707107,0.707107,0.707107,893.194,93.9276)">
        <path d="M-93.52,-39.025L16.452,-39.025L16.165,-38.737L-93.807,-38.737L-93.52,-39.025Z" style="fill:rgb(129,149,168);fill-rule:nonzero;"/>
    </g>
    <g transform="matrix(-0.707107,0.707107,0.707107,0.707107,789.465,93.9276)">
        <path d="M-93.52,-39.025L16.452,-39.025L16.165,-38.737L-93.807,-38.737L-93.52,-39.025Z" style="fill:rgb(129,149,168);fill-rule:nonzero;"/>
    </g>
    <g transform="matrix(-0.707107,-0.707107,-0.707107,0.707107,799.75,21.2758)">
        <clipPath id="_clip3">
            <path d="M-2.816,77.356L-535.022,-454.85L-480.036,-509.837L52.17,22.37L-2.816,77.356Z" clip-rule="nonzero"/>
        </clipPath>
        <g clip-path="url(#_clip3)">
            <rect x="67.985" y="-28.161" width="0.288" height="192.987" style="fill:rgb(129,149,168);"/>
        </g>
    </g>
    <g transform="matrix(-0.707107,0.707107,0.707107,0.707107,1017.67,93.9273)">
        <path d="M-93.519,-39.025L16.453,-39.025L16.165,-38.737L-93.807,-38.737L-93.519,-39.025Z" style="fill:rgb(129,149,168);fill-rule:nonzero;"/>
    </g>
    <g transform="matrix(-0.707107,0.707107,0.707107,0.707107,913.944,93.9276)">
        <path d="M-93.52,-39.025L16.452,-39.025L16.165,-38.737L-93.807,-38.737L-93.52,-39.025Z" style="fill:rgb(129,149,168);fill-rule:nonzero;"/>
    </g>
    <g transform="matrix(-0.707107,0.707107,0.707107,0.707107,810.212,93.9276)">
        <path d="M-93.52,-39.025L16.452,-39.025L16.165,-38.737L-93.807,-38.737L-93.52,-39.025Z" style="fill:rgb(129,149,168);fill-rule:nonzero;"/>
    </g>
    <g transform="matrix(-0.707107,-0.707107,-0.707107,0.707107,820.492,21.2758)">
        <clipPath id="_clip4">
            <path d="M11.851,92.023L-520.356,-440.184L-465.369,-495.17L66.837,37.037L11.851,92.023Z" clip-rule="nonzero"/>
        </clipPath>
        <g clip-path="url(#_clip4)">
            <rect x="67.985" y="-28.161" width="0.288" height="192.987" style="fill:rgb(129,149,168);"/>
        </g>
    </g>
    <g transform="matrix(-0.707107,0.707107,0.707107,0.707107,1038.42,93.9276)">
        <path d="M-93.52,-39.025L16.452,-39.025L16.165,-38.737L-93.807,-38.737L-93.52,-39.025Z" style="fill:rgb(129,149,168);fill-rule:nonzero;"/>
    </g>
    <g transform="matrix(-0.707107,0.707107,0.707107,0.707107,934.686,93.9276)">
        <path d="M-93.52,-39.025L16.452,-39.025L16.165,-38.737L-93.807,-38.737L-93.52,-39.025Z" style="fill:rgb(129,149,168);fill-rule:nonzero;"/>
    </g>
    <g transform="matrix(-0.707107,0.707107,0.707107,0.707107,830.956,93.928)">
        <path d="M-93.52,-39.025L16.452,-39.025L16.164,-38.737L-93.808,-38.737L-93.52,-39.025Z" style="fill:rgb(129,149,168);fill-rule:nonzero;"/>
    </g>
    <g transform="matrix(-0.707107,0.707107,0.707107,0.707107,756.891,23.0002)">
        <path d="M-22.389,-9.849L4.08,-9.849L4.368,-9.562L-22.677,-9.562L-22.389,-9.849Z" style="fill:rgb(129,149,168);fill-rule:nonzero;"/>
    </g>
    <g transform="matrix(-0.707102,0.707111,0.707111,0.707102,1059.17,93.9266)">
        <path d="M-93.517,-39.026L16.454,-39.026L16.166,-38.738L-93.806,-38.736L-93.517,-39.026Z" style="fill:rgb(129,149,168);fill-rule:nonzero;"/>
    </g>
    <g transform="matrix(-0.707107,0.707107,0.707107,0.707107,955.436,93.9273)">
        <path d="M-93.519,-39.025L16.453,-39.025L16.165,-38.737L-93.807,-38.737L-93.519,-39.025Z" style="fill:rgb(129,149,168);fill-rule:nonzero;"/>
    </g>
    <g transform="matrix(-0.707102,0.707111,0.707111,0.707102,851.702,93.9273)">
        <path d="M-93.519,-39.025L16.453,-39.025L16.165,-38.737L-93.807,-38.737L-93.519,-39.025Z" style="fill:rgb(129,149,168);fill-rule:nonzero;"/>
    </g>
    <g transform="matrix(-0.707107,0.707107,0.707107,0.707107,767.263,48.0416)">
        <path d="M-47.43,-20.222L8.376,-20.222L8.664,-19.934L-47.718,-19.934L-47.43,-20.222Z" style="fill:rgb(129,149,168);fill-rule:nonzero;"/>
    </g>
    <g transform="matrix(-0.707102,0.707111,0.707111,0.707102,1079.92,93.9273)">
        <path d="M-93.519,-39.025L16.453,-39.025L16.165,-38.737L-93.807,-38.737L-93.519,-39.025Z" style="fill:rgb(129,149,168);fill-rule:nonzero;"/>
    </g>
    <g transform="matrix(-0.707107,0.707107,0.707107,0.707107,976.182,93.9276)">
        <path d="M-93.52,-39.025L16.452,-39.025L16.164,-38.736L-93.807,-38.737L-93.52,-39.025Z" style="fill:rgb(129,149,168);fill-rule:nonzero;"/>
    </g>
    <g transform="matrix(-0.707102,0.707111,0.707111,0.707102,872.454,93.9269)">
        <path d="M-93.518,-39.025L16.453,-39.025L16.166,-38.737L-93.806,-38.737L-93.518,-39.025Z" style="fill:rgb(129,149,168);fill-rule:nonzero;"/>
    </g>
    <g transform="matrix(-0.707101,0.707113,0.707113,0.707101,777.639,73.0903)">
        <path d="M-72.479,-30.597L12.675,-30.597L12.962,-30.31L-72.767,-30.309L-72.479,-30.597Z" style="fill:rgb(129,149,168);fill-rule:nonzero;"/>
    </g>
    <g transform="matrix(-0.707102,0.707111,0.707111,0.707102,1308.12,93.9269)">
        <path d="M-93.518,-39.025L16.453,-39.025L16.166,-38.737L-93.806,-38.737L-93.518,-39.025Z" style="fill:rgb(129,149,168);fill-rule:nonzero;"/>
    </g>
    <g transform="matrix(-0.707107,0.707107,0.707107,0.707107,1432.6,93.9276)">
        <path d="M-93.52,-39.025L16.452,-39.025L16.165,-38.737L-93.807,-38.737L-93.52,-39.025Z" style="fill:rgb(129,149,168);fill-rule:nonzero;"/>
    </g>
    <g transform="matrix(-0.707107,0.707107,0.707107,0.707107,1204.39,93.9269)">
        <path d="M-93.518,-39.026L16.454,-39.026L16.165,-38.736L-93.807,-38.736L-93.518,-39.026Z" style="fill:rgb(129,149,168);fill-rule:nonzero;"/>
    </g>
    <g transform="matrix(-0.707107,0.707107,0.707107,0.707107,1100.66,93.9273)">
        <path d="M-93.519,-39.025L16.453,-39.025L16.165,-38.737L-93.807,-38.737L-93.519,-39.025Z" style="fill:rgb(129,149,168);fill-rule:nonzero;"/>
    </g>
    <g transform="matrix(-0.707107,0.707107,0.707107,0.707107,1328.87,93.9273)">
        <path d="M-93.519,-39.025L16.453,-39.025L16.165,-38.737L-93.807,-38.737L-93.519,-39.025Z" style="fill:rgb(129,149,168);fill-rule:nonzero;"/>
    </g>
    <g transform="matrix(-0.707102,0.707111,0.707111,0.707102,1453.35,93.9269)">
        <path d="M-93.518,-39.025L16.453,-39.025L16.166,-38.737L-93.806,-38.737L-93.518,-39.025Z" style="fill:rgb(129,149,168);fill-rule:nonzero;"/>
    </g>
    <g transform="matrix(-0.707102,0.707111,0.707111,0.707102,1225.14,93.9269)">
        <path d="M-93.518,-39.025L16.453,-39.025L16.166,-38.737L-93.806,-38.737L-93.518,-39.025Z" style="fill:rgb(129,149,168);fill-rule:nonzero;"/>
    </g>
    <g transform="matrix(-0.707102,0.707111,0.707111,0.707102,1121.41,93.9269)">
        <path d="M-93.518,-39.025L16.453,-39.025L16.166,-38.738L-93.806,-38.737L-93.518,-39.025Z" style="fill:rgb(129,149,168);fill-rule:nonzero;"/>
    </g>
    <g transform="matrix(-0.707102,0.707111,0.707111,0.707102,1349.61,93.9269)">
        <path d="M-93.518,-39.025L16.453,-39.025L16.166,-38.737L-93.806,-38.737L-93.518,-39.025Z" style="fill:rgb(129,149,168);fill-rule:nonzero;"/>
    </g>
    <g transform="matrix(1,0,0,1,1434.86,13.1353)">
        <path d="M0,64.831L0.408,64.831L64.831,0.407L64.831,0L0,64.831Z" style="fill:rgb(129,149,168);fill-rule:nonzero;"/>
    </g>
    <g transform="matrix(-0.707102,0.707111,0.707111,0.707102,1245.89,93.9269)">
        <path d="M-93.518,-39.025L16.453,-39.025L16.166,-38.737L-93.806,-38.737L-93.518,-39.025Z" style="fill:rgb(129,149,168);fill-rule:nonzero;"/>
    </g>
    <g transform="matrix(-0.707102,0.707111,0.707111,0.707102,1142.16,93.9269)">
        <path d="M-93.518,-39.025L16.453,-39.025L16.166,-38.737L-93.806,-38.737L-93.518,-39.025Z" style="fill:rgb(129,149,168);fill-rule:nonzero;"/>
    </g>
    <g transform="matrix(-0.707107,0.707107,0.707107,0.707107,1370.36,93.9273)">
        <path d="M-93.519,-39.025L16.453,-39.025L16.165,-38.737L-93.807,-38.737L-93.519,-39.025Z" style="fill:rgb(129,149,168);fill-rule:nonzero;"/>
    </g>
    <g transform="matrix(1,0,0,1,1455.61,33.8813)">
        <path d="M0,44.085L0.408,44.085L44.085,0.408L44.085,0L0,44.085Z" style="fill:rgb(129,149,168);fill-rule:nonzero;"/>
    </g>
    <g transform="matrix(-0.707107,0.707107,0.707107,0.707107,1266.63,93.9269)">
        <path d="M-93.518,-39.026L16.454,-39.026L16.166,-38.737L-93.807,-38.736L-93.518,-39.026Z" style="fill:rgb(129,149,168);fill-rule:nonzero;"/>
    </g>
    <g transform="matrix(-0.707102,0.707111,0.707111,0.707102,1391.11,93.9269)">
        <path d="M-93.518,-39.025L16.453,-39.025L16.166,-38.737L-93.806,-38.737L-93.518,-39.025Z" style="fill:rgb(129,149,168);fill-rule:nonzero;"/>
    </g>
    <g transform="matrix(-0.707102,0.707111,0.707111,0.707102,1162.9,93.9269)">
        <path d="M-93.518,-39.025L16.453,-39.025L16.166,-38.737L-93.806,-38.737L-93.518,-39.025Z" style="fill:rgb(129,149,168);fill-rule:nonzero;"/>
    </g>
    <g transform="matrix(1,0,0,1,1476.36,54.6283)">
        <path d="M0,23.338L0.408,23.338L23.338,0.408L23.338,0L0,23.338Z" style="fill:rgb(129,149,168);fill-rule:nonzero;"/>
    </g>
    <g transform="matrix(-0.707107,0.707107,0.707107,0.707107,1287.38,93.9273)">
        <path d="M-93.519,-39.025L16.453,-39.025L16.165,-38.737L-93.807,-38.737L-93.519,-39.025Z" style="fill:rgb(129,149,168);fill-rule:nonzero;"/>
    </g>
    <g transform="matrix(-0.707102,0.707111,0.707111,0.707102,1411.85,93.9269)">
        <path d="M-93.518,-39.025L16.453,-39.025L16.166,-38.737L-93.806,-38.737L-93.518,-39.025Z" style="fill:rgb(129,149,168);fill-rule:nonzero;"/>
    </g>
    <g transform="matrix(-0.707107,0.707107,0.707107,0.707107,1183.65,93.9273)">
        <path d="M-93.519,-39.025L16.453,-39.025L16.165,-38.737L-93.807,-38.737L-93.519,-39.025Z" style="fill:rgb(129,149,168);fill-rule:nonzero;"/>
    </g>
    <g transform="matrix(0.707107,0.707107,0.707107,-0.707107,1229.06,-16.0448)">
        <path d="M-16.045,-39.025L93.927,-39.025L94.215,-38.737L-15.756,-38.736L-16.045,-39.025Z" style="fill:rgb(129,149,168);fill-rule:nonzero;"/>
    </g>
    <g transform="matrix(0.707107,0.707107,0.707107,-0.707107,1332.79,-16.0451)">
        <path d="M-16.045,-39.026L93.927,-39.026L94.216,-38.736L-15.756,-38.736L-16.045,-39.026Z" style="fill:rgb(129,149,168);fill-rule:nonzero;"/>
    </g>
    <g transform="matrix(0.707107,0.707107,0.707107,-0.707107,1436.52,-16.0448)">
        <path d="M-16.045,-39.025L93.927,-39.025L94.215,-38.737L-15.757,-38.737L-16.045,-39.025Z" style="fill:rgb(129,149,168);fill-rule:nonzero;"/>
    </g>
    <g transform="matrix(0.707102,0.707111,0.707111,-0.707102,1208.32,-16.0448)">
        <path d="M-16.045,-39.026L93.926,-39.026L94.215,-38.736L-15.757,-38.738L-16.045,-39.026Z" style="fill:rgb(129,149,168);fill-rule:nonzero;"/>
    </g>
    <g transform="matrix(0.707107,0.707107,0.707107,-0.707107,1312.04,-16.0448)">
        <path d="M-16.045,-39.025L93.927,-39.025L94.215,-38.737L-15.756,-38.736L-16.045,-39.025Z" style="fill:rgb(129,149,168);fill-rule:nonzero;"/>
    </g>
    <g transform="matrix(0.707107,0.707107,0.707107,-0.707107,1415.78,-16.0448)">
        <path d="M-16.045,-39.025L93.927,-39.025L94.215,-38.737L-15.757,-38.737L-16.045,-39.025Z" style="fill:rgb(129,149,168);fill-rule:nonzero;"/>
    </g>
    <g transform="matrix(0.707102,0.707111,0.707111,-0.707102,1187.57,-16.0448)">
        <path d="M-16.045,-39.026L93.926,-39.026L94.215,-38.736L-15.757,-38.738L-16.045,-39.026Z" style="fill:rgb(129,149,168);fill-rule:nonzero;"/>
    </g>
    <g transform="matrix(0.707107,0.707107,0.707107,-0.707107,1291.3,-16.0448)">
        <path d="M-16.045,-39.025L93.927,-39.025L94.215,-38.737L-15.756,-38.736L-16.045,-39.025Z" style="fill:rgb(129,149,168);fill-rule:nonzero;"/>
    </g>
    <g transform="matrix(0.707107,0.707107,0.707107,-0.707107,1395.03,-16.0448)">
        <path d="M-16.045,-39.025L93.927,-39.025L94.215,-38.737L-15.756,-38.736L-16.045,-39.025Z" style="fill:rgb(129,149,168);fill-rule:nonzero;"/>
    </g>
    <g transform="matrix(0.707107,0.707107,0.707107,-0.707107,1166.82,-16.0448)">
        <path d="M-16.045,-39.025L93.927,-39.025L94.215,-38.737L-15.757,-38.737L-16.045,-39.025Z" style="fill:rgb(129,149,168);fill-rule:nonzero;"/>
    </g>
    <g transform="matrix(0.707107,0.707107,0.707107,-0.707107,1270.55,-16.0451)">
        <path d="M-16.045,-39.026L93.927,-39.026L94.216,-38.736L-15.756,-38.736L-16.045,-39.026Z" style="fill:rgb(129,149,168);fill-rule:nonzero;"/>
    </g>
    <g transform="matrix(0.707102,0.707111,0.707111,-0.707102,1374.29,-16.0448)">
        <path d="M-16.045,-39.026L93.926,-39.026L94.215,-38.736L-15.757,-38.737L-16.045,-39.026Z" style="fill:rgb(129,149,168);fill-rule:nonzero;"/>
    </g>
    <g transform="matrix(0.707102,0.707111,0.707111,-0.707102,1146.07,-16.0444)">
        <path d="M-16.045,-39.025L93.926,-39.025L94.214,-38.737L-15.757,-38.737L-16.045,-39.025Z" style="fill:rgb(129,149,168);fill-rule:nonzero;"/>
    </g>
    <g transform="matrix(0.707107,0.707107,0.707107,-0.707107,1249.81,-16.0448)">
        <path d="M-16.045,-39.025L93.927,-39.025L94.215,-38.737L-15.757,-38.737L-16.045,-39.025Z" style="fill:rgb(129,149,168);fill-rule:nonzero;"/>
    </g>
    <g transform="matrix(0.707107,0.707107,0.707107,-0.707107,1353.54,-16.0448)">
        <path d="M-16.045,-39.025L93.927,-39.025L94.215,-38.737L-15.756,-38.736L-16.045,-39.025Z" style="fill:rgb(129,149,168);fill-rule:nonzero;"/>
    </g>
    <g transform="matrix(0.707107,0.707107,0.707107,-0.707107,917.867,-16.0444)">
        <path d="M-16.045,-39.025L93.927,-39.025L94.214,-38.737L-15.758,-38.737L-16.045,-39.025Z" style="fill:rgb(129,149,168);fill-rule:nonzero;"/>
    </g>
    <g transform="matrix(0.707107,0.707107,0.707107,-0.707107,1021.6,-16.0444)">
        <path d="M-16.045,-39.025L93.927,-39.025L94.214,-38.737L-15.758,-38.737L-16.045,-39.025Z" style="fill:rgb(129,149,168);fill-rule:nonzero;"/>
    </g>
    <g transform="matrix(0.707102,0.707111,0.707111,-0.707102,1125.33,-16.0448)">
        <path d="M-16.045,-39.026L93.926,-39.026L94.215,-38.736L-15.757,-38.737L-16.045,-39.026Z" style="fill:rgb(129,149,168);fill-rule:nonzero;"/>
    </g>
    <g transform="matrix(0.707107,0.707107,0.707107,-0.707107,1490.13,-3.75683)">
        <path d="M-3.961,-9.564L23.088,-9.564L22.8,-9.275L-3.673,-9.275L-3.961,-9.564Z" style="fill:rgb(129,149,168);fill-rule:nonzero;"/>
    </g>
    <g transform="matrix(0.707107,0.707107,0.707107,-0.707107,1000.85,-16.0444)">
        <path d="M-16.045,-39.025L93.927,-39.025L94.214,-38.737L-15.758,-38.737L-16.045,-39.025Z" style="fill:rgb(129,149,168);fill-rule:nonzero;"/>
    </g>
    <g transform="matrix(0.707102,0.707111,0.707111,-0.707102,1104.58,-16.0448)">
        <path d="M-16.045,-39.026L93.926,-39.026L94.215,-38.736L-15.757,-38.738L-16.045,-39.026Z" style="fill:rgb(129,149,168);fill-rule:nonzero;"/>
    </g>
    <g transform="matrix(0.707116,0.707098,0.707098,-0.707116,1479.76,-8.05299)">
        <path d="M-8.257,-19.935L48.127,-19.935L47.838,-19.646L-7.968,-19.645L-8.257,-19.935Z" style="fill:rgb(129,149,168);fill-rule:nonzero;"/>
    </g>
    <g transform="matrix(0.707107,0.707107,0.707107,-0.707107,980.105,-16.0441)">
        <path d="M-16.046,-39.025L93.926,-39.025L94.214,-38.737L-15.758,-38.737L-16.046,-39.025Z" style="fill:rgb(129,149,168);fill-rule:nonzero;"/>
    </g>
    <g transform="matrix(0.707107,0.707107,0.707107,-0.707107,1083.83,-16.0448)">
        <path d="M-16.045,-39.025L93.927,-39.025L94.215,-38.737L-15.757,-38.737L-16.045,-39.025Z" style="fill:rgb(129,149,168);fill-rule:nonzero;"/>
    </g>
    <g transform="matrix(0.707107,0.707107,0.707107,-0.707107,1469.39,-12.3501)">
        <path d="M-12.555,-30.31L73.174,-30.31L72.885,-30.021L-12.266,-30.021L-12.555,-30.31Z" style="fill:rgb(129,149,168);fill-rule:nonzero;"/>
    </g>
    <g transform="matrix(0.707107,0.707107,0.707107,-0.707107,959.358,-16.0444)">
        <path d="M-16.045,-39.025L93.927,-39.025L94.214,-38.737L-15.758,-38.737L-16.045,-39.025Z" style="fill:rgb(129,149,168);fill-rule:nonzero;"/>
    </g>
    <g transform="matrix(0.707107,0.707107,0.707107,-0.707107,1063.09,-16.0441)">
        <path d="M-16.046,-39.025L93.926,-39.025L94.214,-38.737L-15.758,-38.737L-16.046,-39.025Z" style="fill:rgb(129,149,168);fill-rule:nonzero;"/>
    </g>
    <g transform="matrix(0.707107,0.707107,0.707107,-0.707107,1457.27,-16.0448)">
        <path d="M-16.045,-39.025L93.927,-39.025L94.215,-38.737L-15.757,-38.737L-16.045,-39.025Z" style="fill:rgb(129,149,168);fill-rule:nonzero;"/>
    </g>
    <g transform="matrix(0.707107,0.707107,0.707107,-0.707107,938.614,-16.0444)">
        <path d="M-16.045,-39.025L93.927,-39.025L94.214,-38.737L-15.758,-38.737L-16.045,-39.025Z" style="fill:rgb(129,149,168);fill-rule:nonzero;"/>
    </g>
    <g transform="matrix(0.707107,0.707107,0.707107,-0.707107,1042.34,-16.0444)">
        <path d="M-16.045,-39.025L93.927,-39.025L94.214,-38.737L-15.758,-38.737L-16.045,-39.025Z" style="fill:rgb(129,149,168);fill-rule:nonzero;"/>
    </g>
    <g transform="matrix(0.707107,0.707107,0.707107,-0.707107,758.439,50.0437)">
        <path d="M-4.553,-11.566L27.923,-11.566L28.21,-11.279L-4.84,-11.278L-4.553,-11.566Z" style="fill:rgb(129,149,168);fill-rule:nonzero;"/>
    </g>
    <g transform="matrix(0.707107,0.707107,0.707107,-0.707107,834.914,-16.0444)">
        <path d="M-16.045,-39.025L93.927,-39.025L94.214,-38.737L-15.758,-38.737L-16.045,-39.025Z" style="fill:rgb(129,149,168);fill-rule:nonzero;"/>
    </g>
    <g transform="matrix(0.707107,0.707107,0.707107,-0.707107,814.166,-16.0444)">
        <path d="M-16.045,-39.025L93.927,-39.025L94.214,-38.737L-15.758,-38.737L-16.045,-39.025Z" style="fill:rgb(129,149,168);fill-rule:nonzero;"/>
    </g>
    <g transform="matrix(0.707107,0.707107,0.707107,-0.707107,793.422,-16.0444)">
        <path d="M-16.045,-39.025L93.927,-39.025L94.214,-38.737L-15.757,-38.736L-16.045,-39.025Z" style="fill:rgb(129,149,168);fill-rule:nonzero;"/>
    </g>
    <g transform="matrix(0.707107,0.707107,0.707107,-0.707107,897.151,-16.0441)">
        <path d="M-16.046,-39.025L93.926,-39.025L94.214,-38.737L-15.758,-38.737L-16.046,-39.025Z" style="fill:rgb(129,149,168);fill-rule:nonzero;"/>
    </g>
    <g transform="matrix(0.707107,0.707107,0.707107,-0.707107,779.185,-0.0410676)">
        <path d="M-13.146,-32.312L78.008,-32.312L78.295,-32.024L-13.433,-32.024L-13.146,-32.312Z" style="fill:rgb(129,149,168);fill-rule:nonzero;"/>
    </g>
    <g transform="matrix(0.707102,0.707111,0.707111,-0.707102,876.41,-16.0444)">
        <path d="M-16.045,-39.025L93.926,-39.025L94.214,-38.737L-15.758,-38.737L-16.045,-39.025Z" style="fill:rgb(129,149,168);fill-rule:nonzero;"/>
    </g>
    <g transform="matrix(0.707107,0.707107,0.707107,-0.707107,768.812,24.9999)">
        <path d="M-8.849,-21.939L52.966,-21.939L53.254,-21.652L-9.137,-21.652L-8.849,-21.939Z" style="fill:rgb(129,149,168);fill-rule:nonzero;"/>
    </g>
    <g transform="matrix(0.707107,0.707107,0.707107,-0.707107,855.66,-16.0444)">
        <path d="M-16.045,-39.025L93.927,-39.025L94.214,-38.737L-15.758,-38.737L-16.045,-39.025Z" style="fill:rgb(129,149,168);fill-rule:nonzero;"/>
    </g>
    <g transform="matrix(-1,-0,0,1,2197.2,-82.0821)">
        <rect x="1124.28" y="86.532" width="2.837" height="2.837" style="fill:rgb(129,149,168);"/>
    </g>
    <g transform="matrix(-1,-0,0,1,2238.7,-82.0601)">
        <rect x="1145.03" y="86.521" width="2.837" height="2.837" style="fill:rgb(129,149,168);"/>
    </g>
    <g transform="matrix(-1,-0,0,1,2280.19,-82.0821)">
        <rect x="1165.78" y="86.532" width="2.837" height="2.837" style="fill:rgb(129,149,168);"/>
    </g>
    <g transform="matrix(-1,-0,0,1,2321.69,-82.0601)">
        <rect x="1186.52" y="86.521" width="2.837" height="2.837" style="fill:rgb(129,149,168);"/>
    </g>
    <g transform="matrix(-1,-0,0,1,2363.18,-82.0601)">
        <rect x="1207.27" y="86.521" width="2.837" height="2.837" style="fill:rgb(129,149,168);"/>
    </g>
    <g transform="matrix(-1,-0,0,1,2404.68,-82.0821)">
        <rect x="1228.02" y="86.532" width="2.837" height="2.837" style="fill:rgb(129,149,168);"/>
    </g>
    <g transform="matrix(-1,-0,0,1,2446.18,-82.0601)">
        <rect x="1248.77" y="86.521" width="2.837" height="2.837" style="fill:rgb(129,149,168);"/>
    </g>
    <g transform="matrix(-1,-0,0,1,2197.2,-40.9261)">
        <rect x="1124.28" y="65.954" width="2.837" height="2.837" style="fill:rgb(129,149,168);"/>
    </g>
    <g transform="matrix(-1,-0,0,1,2238.7,-40.9061)">
        <rect x="1145.03" y="65.944" width="2.837" height="2.837" style="fill:rgb(129,149,168);"/>
    </g>
    <g transform="matrix(-1,-0,0,1,2280.19,-40.9261)">
        <rect x="1165.78" y="65.954" width="2.837" height="2.837" style="fill:rgb(129,149,168);"/>
    </g>
    <g transform="matrix(-1,-0,0,1,2321.69,-40.9061)">
        <rect x="1186.52" y="65.944" width="2.837" height="2.837" style="fill:rgb(129,149,168);"/>
    </g>
    <g transform="matrix(-1,-0,0,1,2363.18,-40.9061)">
        <rect x="1207.27" y="65.944" width="2.837" height="2.837" style="fill:rgb(129,149,168);"/>
    </g>
    <g transform="matrix(-1,-0,0,1,2404.68,-40.9261)">
        <rect x="1228.02" y="65.954" width="2.837" height="2.837" style="fill:rgb(129,149,168);"/>
    </g>
    <g transform="matrix(-1,-0,0,1,2446.18,-40.9061)">
        <rect x="1248.77" y="65.944" width="2.837" height="2.837" style="fill:rgb(129,149,168);"/>
    </g>
    <g transform="matrix(-1,-0,0,1,2197.2,1.3699)">
        <rect x="1124.28" y="44.806" width="2.837" height="2.837" style="fill:rgb(129,149,168);"/>
    </g>
    <g transform="matrix(-1,-0,0,1,2238.7,1.3899)">
        <rect x="1145.03" y="44.796" width="2.837" height="2.837" style="fill:rgb(129,149,168);"/>
    </g>
    <g transform="matrix(-1,-0,0,1,2280.19,1.3699)">
        <rect x="1165.78" y="44.806" width="2.837" height="2.837" style="fill:rgb(129,149,168);"/>
    </g>
    <g transform="matrix(-1,-0,0,1,2321.69,1.3899)">
        <rect x="1186.52" y="44.796" width="2.837" height="2.837" style="fill:rgb(129,149,168);"/>
    </g>
    <g transform="matrix(-1,-0,0,1,2363.18,1.3899)">
        <rect x="1207.27" y="44.796" width="2.837" height="2.837" style="fill:rgb(129,149,168);"/>
    </g>
    <g transform="matrix(-1,-0,0,1,2404.68,1.3699)">
        <rect x="1228.02" y="44.806" width="2.837" height="2.837" style="fill:rgb(129,149,168);"/>
    </g>
    <g transform="matrix(-1,-0,0,1,2446.18,1.3899)">
        <rect x="1248.77" y="44.796" width="2.837" height="2.837" style="fill:rgb(129,149,168);"/>
    </g>
    <g transform="matrix(-1,-0,0,1,2197.2,42.5239)">
        <rect x="1124.28" y="24.229" width="2.837" height="2.837" style="fill:rgb(129,149,168);"/>
    </g>
    <g transform="matrix(-1,-0,0,1,2238.7,42.5459)">
        <rect x="1145.03" y="24.218" width="2.837" height="2.837" style="fill:rgb(129,149,168);"/>
    </g>
    <g transform="matrix(-1,-0,0,1,2280.19,42.5239)">
        <rect x="1165.78" y="24.229" width="2.837" height="2.837" style="fill:rgb(129,149,168);"/>
    </g>
    <g transform="matrix(-1,-0,0,1,2321.69,42.5459)">
        <rect x="1186.52" y="24.218" width="2.837" height="2.837" style="fill:rgb(129,149,168);"/>
    </g>
    <g transform="matrix(-1,-0,0,1,2363.18,42.5459)">
        <rect x="1207.27" y="24.218" width="2.837" height="2.837" style="fill:rgb(129,149,168);"/>
    </g>
    <g transform="matrix(-1,-0,0,1,2404.68,42.5239)">
        <rect x="1228.02" y="24.229" width="2.837" height="2.837" style="fill:rgb(129,149,168);"/>
    </g>
    <g transform="matrix(-1,-0,0,1,2446.18,42.5459)">
        <rect x="1248.77" y="24.218" width="2.837" height="2.837" style="fill:rgb(129,149,168);"/>
    </g>
    <g transform="matrix(-1,-0,0,1,1948.23,-82.0821)">
        <rect x="999.794" y="86.532" width="2.837" height="2.837" style="fill:rgb(129,149,168);"/>
    </g>
    <g transform="matrix(-1,-0,0,1,1989.73,-82.0601)">
        <rect x="1020.54" y="86.521" width="2.836" height="2.837" style="fill:rgb(129,149,168);"/>
    </g>
    <g transform="matrix(-1,-0,0,1,2031.22,-82.0821)">
        <rect x="1041.29" y="86.532" width="2.837" height="2.837" style="fill:rgb(129,149,168);"/>
    </g>
    <g transform="matrix(-1,-0,0,1,2072.72,-82.0601)">
        <rect x="1062.04" y="86.521" width="2.837" height="2.837" style="fill:rgb(129,149,168);"/>
    </g>
    <g transform="matrix(-1,-0,0,1,2114.21,-82.0601)">
        <rect x="1082.79" y="86.521" width="2.836" height="2.837" style="fill:rgb(129,149,168);"/>
    </g>
    <g transform="matrix(-1,-0,0,1,2155.71,-82.0821)">
        <rect x="1103.53" y="86.532" width="2.837" height="2.837" style="fill:rgb(129,149,168);"/>
    </g>
    <g transform="matrix(-1,-0,0,1,1699.26,-82.0821)">
        <rect x="875.308" y="86.532" width="2.837" height="2.837" style="fill:rgb(129,149,168);"/>
    </g>
    <g transform="matrix(-1,-0,0,1,1740.75,-82.0601)">
        <rect x="896.055" y="86.521" width="2.837" height="2.837" style="fill:rgb(129,149,168);"/>
    </g>
    <g transform="matrix(-1,-0,0,1,1782.25,-82.0821)">
        <rect x="916.804" y="86.532" width="2.836" height="2.837" style="fill:rgb(129,149,168);"/>
    </g>
    <g transform="matrix(-1,-0,0,1,1823.74,-82.0601)">
        <rect x="937.551" y="86.521" width="2.837" height="2.837" style="fill:rgb(129,149,168);"/>
    </g>
    <g transform="matrix(-1,-0,0,1,1865.24,-82.0601)">
        <rect x="958.299" y="86.521" width="2.837" height="2.837" style="fill:rgb(129,149,168);"/>
    </g>
    <g transform="matrix(-1,-0,0,1,1906.73,-82.0821)">
        <rect x="979.046" y="86.532" width="2.837" height="2.837" style="fill:rgb(129,149,168);"/>
    </g>
    <g transform="matrix(-1,-0,0,1,1948.23,-40.9261)">
        <rect x="999.794" y="65.954" width="2.837" height="2.837" style="fill:rgb(129,149,168);"/>
    </g>
    <g transform="matrix(-1,-0,0,1,1989.73,-40.9061)">
        <rect x="1020.54" y="65.944" width="2.836" height="2.837" style="fill:rgb(129,149,168);"/>
    </g>
    <g transform="matrix(-1,-0,0,1,2031.22,-40.9261)">
        <rect x="1041.29" y="65.954" width="2.837" height="2.837" style="fill:rgb(129,149,168);"/>
    </g>
    <g transform="matrix(-1,-0,0,1,2072.72,-40.9061)">
        <rect x="1062.04" y="65.944" width="2.837" height="2.837" style="fill:rgb(129,149,168);"/>
    </g>
    <g transform="matrix(-1,-0,0,1,2114.21,-40.9061)">
        <rect x="1082.79" y="65.944" width="2.836" height="2.837" style="fill:rgb(129,149,168);"/>
    </g>
    <g transform="matrix(-1,-0,0,1,2155.71,-40.9261)">
        <rect x="1103.53" y="65.954" width="2.837" height="2.837" style="fill:rgb(129,149,168);"/>
    </g>
    <g transform="matrix(-1,-0,0,1,1948.23,1.3699)">
        <rect x="999.794" y="44.806" width="2.837" height="2.837" style="fill:rgb(129,149,168);"/>
    </g>
    <g transform="matrix(-1,-0,0,1,1989.73,1.3899)">
        <rect x="1020.54" y="44.796" width="2.836" height="2.837" style="fill:rgb(129,149,168);"/>
    </g>
    <g transform="matrix(-1,-0,0,1,2031.22,1.3699)">
        <rect x="1041.29" y="44.806" width="2.837" height="2.837" style="fill:rgb(129,149,168);"/>
    </g>
    <g transform="matrix(-1,-0,0,1,2072.72,1.3899)">
        <rect x="1062.04" y="44.796" width="2.837" height="2.837" style="fill:rgb(129,149,168);"/>
    </g>
    <g transform="matrix(-1,-0,0,1,2114.21,1.3899)">
        <rect x="1082.79" y="44.796" width="2.836" height="2.837" style="fill:rgb(129,149,168);"/>
    </g>
    <g transform="matrix(-1,-0,0,1,2155.71,1.3699)">
        <rect x="1103.53" y="44.806" width="2.837" height="2.837" style="fill:rgb(129,149,168);"/>
    </g>
    <g transform="matrix(-1,-0,0,1,1948.23,42.5239)">
        <rect x="999.794" y="24.229" width="2.837" height="2.837" style="fill:rgb(129,149,168);"/>
    </g>
    <g transform="matrix(-1,-0,0,1,1989.73,42.5459)">
        <rect x="1020.54" y="24.218" width="2.836" height="2.837" style="fill:rgb(129,149,168);"/>
    </g>
    <g transform="matrix(-1,-0,0,1,2031.22,42.5239)">
        <rect x="1041.29" y="24.229" width="2.837" height="2.837" style="fill:rgb(129,149,168);"/>
    </g>
    <g transform="matrix(-1,-0,0,1,2072.72,42.5459)">
        <rect x="1062.04" y="24.218" width="2.837" height="2.837" style="fill:rgb(129,149,168);"/>
    </g>
    <g transform="matrix(-1,-0,0,1,2114.21,42.5459)">
        <rect x="1082.79" y="24.218" width="2.836" height="2.837" style="fill:rgb(129,149,168);"/>
    </g>
    <g transform="matrix(-1,-0,0,1,2155.71,42.5239)">
        <rect x="1103.53" y="24.229" width="2.837" height="2.837" style="fill:rgb(129,149,168);"/>
    </g>
    <g transform="matrix(-1,-0,0,1,2695.15,-82.0821)">
        <rect x="1373.25" y="86.532" width="2.836" height="2.837" style="fill:rgb(129,149,168);"/>
    </g>
    <g transform="matrix(-1,-0,0,1,2736.64,-82.0601)">
        <rect x="1394" y="86.521" width="2.837" height="2.837" style="fill:rgb(129,149,168);"/>
    </g>
    <g transform="matrix(-1,-0,0,1,2778.14,-82.0821)">
        <rect x="1414.75" y="86.532" width="2.837" height="2.837" style="fill:rgb(129,149,168);"/>
    </g>
    <g transform="matrix(-1,-0,0,1,2819.63,-82.0601)">
        <rect x="1435.5" y="86.521" width="2.837" height="2.837" style="fill:rgb(129,149,168);"/>
    </g>
    <g transform="matrix(-1,-0,0,1,2861.13,-82.0601)">
        <rect x="1456.24" y="86.521" width="2.837" height="2.837" style="fill:rgb(129,149,168);"/>
    </g>
    <g transform="matrix(-1,-0,0,1,2902.62,-82.0821)">
        <rect x="1476.99" y="86.532" width="2.837" height="2.837" style="fill:rgb(129,149,168);"/>
    </g>
    <g transform="matrix(-1,-0,0,1,2944.12,-82.0601)">
        <rect x="1497.74" y="86.521" width="2.837" height="2.837" style="fill:rgb(129,149,168);"/>
    </g>
    <g transform="matrix(-1,-0,0,1,2695.15,-40.9261)">
        <rect x="1373.25" y="65.954" width="2.836" height="2.837" style="fill:rgb(129,149,168);"/>
    </g>
    <g transform="matrix(-1,-0,0,1,2736.64,-40.9061)">
        <rect x="1394" y="65.944" width="2.837" height="2.837" style="fill:rgb(129,149,168);"/>
    </g>
    <g transform="matrix(-1,-0,0,1,2778.14,-40.9261)">
        <rect x="1414.75" y="65.954" width="2.837" height="2.837" style="fill:rgb(129,149,168);"/>
    </g>
    <g transform="matrix(-1,-0,0,1,2819.63,-40.9061)">
        <rect x="1435.5" y="65.944" width="2.837" height="2.837" style="fill:rgb(129,149,168);"/>
    </g>
    <g transform="matrix(-1,-0,0,1,2861.13,-40.9061)">
        <rect x="1456.24" y="65.944" width="2.837" height="2.837" style="fill:rgb(129,149,168);"/>
    </g>
    <g transform="matrix(-1,-0,0,1,2902.62,-40.9261)">
        <rect x="1476.99" y="65.954" width="2.837" height="2.837" style="fill:rgb(129,149,168);"/>
    </g>
    <g transform="matrix(-1,-0,0,1,2944.12,-40.9061)">
        <rect x="1497.74" y="65.944" width="2.837" height="2.837" style="fill:rgb(129,149,168);"/>
    </g>
    <g transform="matrix(-1,-0,0,1,2695.15,1.3699)">
        <rect x="1373.25" y="44.806" width="2.836" height="2.837" style="fill:rgb(129,149,168);"/>
    </g>
    <g transform="matrix(-1,-0,0,1,2736.64,1.3899)">
        <rect x="1394" y="44.796" width="2.837" height="2.837" style="fill:rgb(129,149,168);"/>
    </g>
    <g transform="matrix(-1,-0,0,1,2778.14,1.3699)">
        <rect x="1414.75" y="44.806" width="2.837" height="2.837" style="fill:rgb(129,149,168);"/>
    </g>
    <g transform="matrix(-1,-0,0,1,2819.63,1.3899)">
        <rect x="1435.5" y="44.796" width="2.837" height="2.837" style="fill:rgb(129,149,168);"/>
    </g>
    <g transform="matrix(-1,-0,0,1,2861.13,1.3899)">
        <rect x="1456.24" y="44.796" width="2.837" height="2.837" style="fill:rgb(129,149,168);"/>
    </g>
    <g transform="matrix(-1,-0,0,1,2902.62,1.3699)">
        <rect x="1476.99" y="44.806" width="2.837" height="2.837" style="fill:rgb(129,149,168);"/>
    </g>
    <g transform="matrix(-1,-0,0,1,2944.12,1.3899)">
        <rect x="1497.74" y="44.796" width="2.837" height="2.837" style="fill:rgb(129,149,168);"/>
    </g>
    <g transform="matrix(-1,-0,0,1,2695.15,42.5239)">
        <rect x="1373.25" y="24.229" width="2.836" height="2.837" style="fill:rgb(129,149,168);"/>
    </g>
    <g transform="matrix(-1,-0,0,1,2736.64,42.5459)">
        <rect x="1394" y="24.218" width="2.837" height="2.837" style="fill:rgb(129,149,168);"/>
    </g>
    <g transform="matrix(-1,-0,0,1,2778.14,42.5239)">
        <rect x="1414.75" y="24.229" width="2.837" height="2.837" style="fill:rgb(129,149,168);"/>
    </g>
    <g transform="matrix(-1,-0,0,1,2819.63,42.5459)">
        <rect x="1435.5" y="24.218" width="2.837" height="2.837" style="fill:rgb(129,149,168);"/>
    </g>
    <g transform="matrix(-1,-0,0,1,2861.13,42.5459)">
        <rect x="1456.24" y="24.218" width="2.837" height="2.837" style="fill:rgb(129,149,168);"/>
    </g>
    <g transform="matrix(-1,-0,0,1,2902.62,42.5239)">
        <rect x="1476.99" y="24.229" width="2.837" height="2.837" style="fill:rgb(129,149,168);"/>
    </g>
    <g transform="matrix(-1,-0,0,1,2944.12,42.5459)">
        <rect x="1497.74" y="24.218" width="2.837" height="2.837" style="fill:rgb(129,149,168);"/>
    </g>
    <g transform="matrix(-1,-0,0,1,2446.18,-82.0821)">
        <rect x="1248.77" y="86.532" width="2.837" height="2.837" style="fill:rgb(129,149,168);"/>
    </g>
    <g transform="matrix(-1,-0,0,1,2487.67,-82.0601)">
        <rect x="1269.51" y="86.521" width="2.837" height="2.837" style="fill:rgb(129,149,168);"/>
    </g>
    <g transform="matrix(-1,-0,0,1,2529.17,-82.0821)">
        <rect x="1290.26" y="86.532" width="2.837" height="2.837" style="fill:rgb(129,149,168);"/>
    </g>
    <g transform="matrix(-1,-0,0,1,2570.66,-82.0601)">
        <rect x="1311.01" y="86.521" width="2.836" height="2.837" style="fill:rgb(129,149,168);"/>
    </g>
    <g transform="matrix(-1,-0,0,1,2612.16,-82.0601)">
        <rect x="1331.76" y="86.521" width="2.837" height="2.837" style="fill:rgb(129,149,168);"/>
    </g>
    <g transform="matrix(-1,-0,0,1,2653.65,-82.0821)">
        <rect x="1352.51" y="86.532" width="2.837" height="2.837" style="fill:rgb(129,149,168);"/>
    </g>
    <g transform="matrix(-1,-0,0,1,2487.67,-40.9061)">
        <rect x="1269.51" y="65.944" width="2.837" height="2.837" style="fill:rgb(129,149,168);"/>
    </g>
    <g transform="matrix(-1,-0,0,1,2529.17,-40.9261)">
        <rect x="1290.26" y="65.954" width="2.837" height="2.837" style="fill:rgb(129,149,168);"/>
    </g>
    <g transform="matrix(-1,-0,0,1,2570.66,-40.9061)">
        <rect x="1311.01" y="65.944" width="2.836" height="2.837" style="fill:rgb(129,149,168);"/>
    </g>
    <g transform="matrix(-1,-0,0,1,2612.16,-40.9061)">
        <rect x="1331.76" y="65.944" width="2.837" height="2.837" style="fill:rgb(129,149,168);"/>
    </g>
    <g transform="matrix(-1,-0,0,1,2653.65,-40.9261)">
        <rect x="1352.51" y="65.954" width="2.837" height="2.837" style="fill:rgb(129,149,168);"/>
    </g>
    <g transform="matrix(-1,-0,0,1,2487.67,1.3899)">
        <rect x="1269.51" y="44.796" width="2.837" height="2.837" style="fill:rgb(129,149,168);"/>
    </g>
    <g transform="matrix(-1,-0,0,1,2529.17,1.3699)">
        <rect x="1290.26" y="44.806" width="2.837" height="2.837" style="fill:rgb(129,149,168);"/>
    </g>
    <g transform="matrix(-1,-0,0,1,2570.66,1.3899)">
        <rect x="1311.01" y="44.796" width="2.836" height="2.837" style="fill:rgb(129,149,168);"/>
    </g>
    <g transform="matrix(-1,-0,0,1,2612.16,1.3899)">
        <rect x="1331.76" y="44.796" width="2.837" height="2.837" style="fill:rgb(129,149,168);"/>
    </g>
    <g transform="matrix(-1,-0,0,1,2653.65,1.3699)">
        <rect x="1352.51" y="44.806" width="2.837" height="2.837" style="fill:rgb(129,149,168);"/>
    </g>
    <g transform="matrix(-1,-0,0,1,2487.67,42.5459)">
        <rect x="1269.51" y="24.218" width="2.837" height="2.837" style="fill:rgb(129,149,168);"/>
    </g>
    <g transform="matrix(-1,-0,0,1,2529.17,42.5239)">
        <rect x="1290.26" y="24.229" width="2.837" height="2.837" style="fill:rgb(129,149,168);"/>
    </g>
    <g transform="matrix(-1,-0,0,1,2570.66,42.5459)">
        <rect x="1311.01" y="24.218" width="2.836" height="2.837" style="fill:rgb(129,149,168);"/>
    </g>
    <g transform="matrix(-1,-0,0,1,2612.16,42.5459)">
        <rect x="1331.76" y="24.218" width="2.837" height="2.837" style="fill:rgb(129,149,168);"/>
    </g>
    <g transform="matrix(-1,-0,0,1,2653.65,42.5239)">
        <rect x="1352.51" y="24.229" width="2.837" height="2.837" style="fill:rgb(129,149,168);"/>
    </g>
    <g transform="matrix(-1,-0,0,1,1699.26,-40.9261)">
        <rect x="875.308" y="65.954" width="2.837" height="2.837" style="fill:rgb(129,149,168);"/>
    </g>
    <g transform="matrix(-1,-0,0,1,1740.75,-40.9061)">
        <rect x="896.055" y="65.944" width="2.837" height="2.837" style="fill:rgb(129,149,168);"/>
    </g>
    <g transform="matrix(-1,-0,0,1,1782.25,-40.9261)">
        <rect x="916.804" y="65.954" width="2.836" height="2.837" style="fill:rgb(129,149,168);"/>
    </g>
    <g transform="matrix(-1,-0,0,1,1823.74,-40.9061)">
        <rect x="937.551" y="65.944" width="2.837" height="2.837" style="fill:rgb(129,149,168);"/>
    </g>
    <g transform="matrix(-1,-0,0,1,1865.24,-40.9061)">
        <rect x="958.299" y="65.944" width="2.837" height="2.837" style="fill:rgb(129,149,168);"/>
    </g>
    <g transform="matrix(-1,-0,0,1,1906.73,-40.9261)">
        <rect x="979.046" y="65.954" width="2.837" height="2.837" style="fill:rgb(129,149,168);"/>
    </g>
    <g transform="matrix(-1,-0,0,1,1699.26,1.3699)">
        <rect x="875.308" y="44.806" width="2.837" height="2.837" style="fill:rgb(129,149,168);"/>
    </g>
    <g transform="matrix(-1,-0,0,1,1740.75,1.3899)">
        <rect x="896.055" y="44.796" width="2.837" height="2.837" style="fill:rgb(129,149,168);"/>
    </g>
    <g transform="matrix(-1,-0,0,1,1782.25,1.3699)">
        <rect x="916.804" y="44.806" width="2.836" height="2.837" style="fill:rgb(129,149,168);"/>
    </g>
    <g transform="matrix(-1,-0,0,1,1823.74,1.3899)">
        <rect x="937.551" y="44.796" width="2.837" height="2.837" style="fill:rgb(129,149,168);"/>
    </g>
    <g transform="matrix(-1,-0,0,1,1865.24,1.3899)">
        <rect x="958.299" y="44.796" width="2.837" height="2.837" style="fill:rgb(129,149,168);"/>
    </g>
    <g transform="matrix(-1,-0,0,1,1906.73,1.3699)">
        <rect x="979.046" y="44.806" width="2.837" height="2.837" style="fill:rgb(129,149,168);"/>
    </g>
    <g transform="matrix(-1,-0,0,1,1699.26,42.5239)">
        <rect x="875.308" y="24.229" width="2.837" height="2.837" style="fill:rgb(129,149,168);"/>
    </g>
    <g transform="matrix(-1,-0,0,1,1740.75,42.5459)">
        <rect x="896.055" y="24.218" width="2.837" height="2.837" style="fill:rgb(129,149,168);"/>
    </g>
    <g transform="matrix(-1,-0,0,1,1782.25,42.5239)">
        <rect x="916.804" y="24.229" width="2.836" height="2.837" style="fill:rgb(129,149,168);"/>
    </g>
    <g transform="matrix(-1,-0,0,1,1823.74,42.5459)">
        <rect x="937.551" y="24.218" width="2.837" height="2.837" style="fill:rgb(129,149,168);"/>
    </g>
    <g transform="matrix(-1,-0,0,1,1865.24,42.5459)">
        <rect x="958.299" y="24.218" width="2.837" height="2.837" style="fill:rgb(129,149,168);"/>
    </g>
    <g transform="matrix(-1,-0,0,1,1906.73,42.5239)">
        <rect x="979.046" y="24.229" width="2.837" height="2.837" style="fill:rgb(129,149,168);"/>
    </g>
    <g transform="matrix(-1,-0,0,1,1574.77,-82.0601)">
        <rect x="813.064" y="86.521" width="2.837" height="2.837" style="fill:rgb(129,149,168);"/>
    </g>
    <g transform="matrix(-1,-0,0,1,1616.27,-82.0601)">
        <rect x="833.813" y="86.521" width="2.836" height="2.837" style="fill:rgb(129,149,168);"/>
    </g>
    <g transform="matrix(-1,-0,0,1,1657.76,-82.0821)">
        <rect x="854.56" y="86.532" width="2.837" height="2.837" style="fill:rgb(129,149,168);"/>
    </g>
    <g transform="matrix(-1,-0,0,1,1574.77,-40.9061)">
        <rect x="813.064" y="65.944" width="2.837" height="2.837" style="fill:rgb(129,149,168);"/>
    </g>
    <g transform="matrix(-1,-0,0,1,1616.27,-40.9061)">
        <rect x="833.813" y="65.944" width="2.836" height="2.837" style="fill:rgb(129,149,168);"/>
    </g>
    <g transform="matrix(-1,-0,0,1,1657.76,-40.9261)">
        <rect x="854.56" y="65.954" width="2.837" height="2.837" style="fill:rgb(129,149,168);"/>
    </g>
    <g transform="matrix(-1,-0,0,1,1574.77,1.3899)">
        <rect x="813.064" y="44.796" width="2.837" height="2.837" style="fill:rgb(129,149,168);"/>
    </g>
    <g transform="matrix(-1,-0,0,1,1616.27,1.3899)">
        <rect x="833.813" y="44.796" width="2.836" height="2.837" style="fill:rgb(129,149,168);"/>
    </g>
    <g transform="matrix(-1,-0,0,1,1657.76,1.3699)">
        <rect x="854.56" y="44.806" width="2.837" height="2.837" style="fill:rgb(129,149,168);"/>
    </g>
    <g transform="matrix(-1,-0,0,1,1574.77,42.5459)">
        <rect x="813.064" y="24.218" width="2.837" height="2.837" style="fill:rgb(129,149,168);"/>
    </g>
    <g transform="matrix(-1,-0,0,1,1616.27,42.5459)">
        <rect x="833.813" y="24.218" width="2.836" height="2.837" style="fill:rgb(129,149,168);"/>
    </g>
    <g transform="matrix(-1,-0,0,1,1657.76,42.5239)">
        <rect x="854.56" y="24.229" width="2.837" height="2.837" style="fill:rgb(129,149,168);"/>
    </g>
    <g transform="matrix(-1,-0,0,1,2985.35,-81.9601)">
        <rect x="1518.36" y="86.471" width="2.837" height="2.837" style="fill:rgb(129,149,168);"/>
    </g>
    <g transform="matrix(-1,-0,0,1,3026.85,-81.9801)">
        <rect x="1539.1" y="86.481" width="2.837" height="2.837" style="fill:rgb(129,149,168);"/>
    </g>
    <g transform="matrix(-1,-0,0,1,2985.35,-40.8061)">
        <rect x="1518.36" y="65.894" width="2.837" height="2.837" style="fill:rgb(129,149,168);"/>
    </g>
    <g transform="matrix(-1,-0,0,1,3026.85,-40.8261)">
        <rect x="1539.1" y="65.904" width="2.837" height="2.837" style="fill:rgb(129,149,168);"/>
    </g>
    <g transform="matrix(-1,-0,0,1,2985.35,1.4909)">
        <rect x="1518.36" y="44.746" width="2.837" height="2.836" style="fill:rgb(129,149,168);"/>
    </g>
    <g transform="matrix(-1,-0,0,1,3026.85,1.4699)">
        <rect x="1539.1" y="44.756" width="2.837" height="2.837" style="fill:rgb(129,149,168);"/>
    </g>
    <g transform="matrix(-1,-0,0,1,2985.35,42.6469)">
        <rect x="1518.36" y="24.168" width="2.837" height="2.836" style="fill:rgb(129,149,168);"/>
    </g>
    <g transform="matrix(-1,-0,0,1,3026.85,42.6259)">
        <rect x="1539.1" y="24.178" width="2.837" height="2.837" style="fill:rgb(129,149,168);"/>
    </g>
</svg>
