<?xml version="1.0" encoding="UTF-8" standalone="no"?>
<!DOCTYPE svg PUBLIC "-//W3C//DTD SVG 1.1//EN" "http://www.w3.org/Graphics/SVG/1.1/DTD/svg11.dtd">
<svg width="100%" height="100%" viewBox="0 0 316 158" version="1.1" xmlns="http://www.w3.org/2000/svg" xmlns:xlink="http://www.w3.org/1999/xlink" xml:space="preserve" xmlns:serif="http://www.serif.com/" style="fill-rule:evenodd;clip-rule:evenodd;stroke-linejoin:round;stroke-miterlimit:1.41421;">
    <g transform="matrix(1,0,0,1,-52,-19.1)">
        <path d="M356.8,85.5C350.7,86.4 346.1,91.7 346.1,98C346.1,104.2 350.7,109.5 356.8,110.5C344,143.8 281.2,168.8 210,168.8C138.9,168.8 76.1,143.8 63.2,110.5C69.3,109.6 73.9,104.3 73.9,98C73.9,91.7 69.3,86.5 63.2,85.5C76.1,52.2 138.9,27.2 210,27.2C281.1,27.2 343.9,52.2 356.8,85.5M357.8,86.7L358.7,86.6L358.4,85.8C346.1,51.6 282.3,25.8 210.1,25.8C137.9,25.8 74,51.6 61.7,85.8L61.4,86.6L62.3,86.7C68.1,87.2 72.7,92.1 72.7,97.9C72.7,103.7 68.1,108.7 62.3,109.1L61.4,109.2L61.7,110C74,144.2 137.8,170 210,170C282.2,170 346,144.2 358.3,110L358.6,109.2L357.7,109.1C351.9,108.6 347.3,103.7 347.3,97.9C347.4,92.1 351.9,87.2 357.8,86.7M362.4,90.3C361.3,89.7 360,89.4 358.7,89.4C354,89.4 350.1,93.2 350.1,98C350.1,102.7 353.9,106.6 358.7,106.6C360,106.6 361.3,106.3 362.4,105.7C354.5,143.4 289.3,172.8 210,172.8C130.7,172.8 65.5,143.3 57.6,105.6C58.7,106.2 60,106.5 61.3,106.5C66,106.5 69.9,102.7 69.9,97.9C69.9,93.2 66.1,89.3 61.3,89.3C60,89.3 58.7,89.6 57.6,90.2C65.5,52.5 130.7,23.1 210,23.1C289.3,23.1 354.5,52.6 362.4,90.3M368,97.9C368,54.4 297.3,19.1 210,19.1C122.7,19.1 52,54.4 52,97.9C52,141.4 122.7,176.7 210,176.7C297.3,176.7 368,141.5 368,97.9" style="fill:rgb(129,149,168);fill-rule:nonzero;"/>
    </g>
    <g transform="matrix(1,0,0,1,-52,-19.1)">
        <path d="M114.6,76.4C114.6,77.2 114.6,78 114.7,78.7C114.9,80 115.6,81.2 116.3,82.3C118.5,85.7 120.7,89 122.9,92.4C123.7,93.7 124.6,94.9 125.4,96.2C125.5,96.3 125.6,96.4 125.7,96.6C126.5,95.4 127.3,94.1 128.1,92.9C129.9,90.2 131.7,87.5 133.5,84.9C133.6,84.7 133.7,84.5 133.7,84.3C133.7,82.6 133.7,80.8 133.7,79.1L133.7,78.7L147.5,78.7C147.5,79 147.5,79.4 147.5,79.7C147.5,79.8 147.3,79.9 147.2,79.9C146.4,80.1 145.7,80.4 145.1,80.8C144.4,81.3 144.1,82 144,82.8C144,83.2 143.9,83.5 143.9,83.9C143.9,91.4 143.8,98.8 143.8,106.3C143.8,108.7 143.8,111.1 143.9,113.5C143.9,115.1 144.7,116.1 146.2,116.7C146.5,116.8 146.9,116.9 147.2,117C147.5,117.1 147.5,117.2 147.5,117.4C147.5,117.7 147.5,117.9 147.5,118.2L129.6,118.2C129.6,117.9 129.6,117.5 129.6,117.2C129.6,117.1 129.9,117 130,117C130.9,116.9 131.7,116.6 132.4,116C133.1,115.5 133.5,114.7 133.5,113.9C133.6,112.2 133.6,110.5 133.6,108.8C133.6,102.5 133.6,96.2 133.6,89.9L133.6,89.5L133.5,89.5C129.2,96.1 124.6,102.4 121,109.5C117.2,102.7 112.7,96.4 108.6,89.8L108.5,89.8C108.5,90.4 108.5,91.1 108.5,91.7C108.4,95.4 108.3,99 108.3,102.7C108.3,105.4 108.6,108 109.3,110.6C110.1,113.6 111.6,116.2 114.1,118.2L99,118.2C99.2,118.1 99.3,117.9 99.4,117.8C101.8,115.8 103.5,113.4 104.4,110.4C105.1,108.1 105.5,105.8 105.7,103.4C106,99.7 106.2,95.9 106.4,92.2C106.5,90.7 106.6,89.2 106.7,87.8C106.7,87.6 106.6,87.5 106.5,87.3C104.9,85 102.6,83.6 100,82.9C99.8,82.9 99.7,82.8 99.5,82.7C104,79.1 109.1,77.1 114.6,76.4" style="fill:rgb(129,149,168);fill-rule:nonzero;"/>
    </g>
    <g transform="matrix(1,0,0,1,-52,-19.1)">
        <path d="M150.9,94.4C151.5,93.9 152,93.4 152.6,92.9C153.7,92 154.8,91 155.9,90.1C156,90 156.2,90 156.3,90C157.4,90.6 158.4,91.3 159.2,92.4C160.1,93.6 160.3,95 159.9,96.4C159.5,97.9 159,99.4 158.6,100.9C158.1,102.4 157.6,103.8 157.3,105.4C156.8,108.7 158.8,111.6 162,112.3C164.2,112.8 166.3,112.5 168.3,111.5C168.8,111.3 168.9,111 168.9,110.5C168.9,106.9 168.9,103.4 168.9,99.8C168.9,99 168.8,98.2 168.7,97.4C168.6,96.6 168,96 167.2,95.7C166.5,95.4 165.8,95.2 165,95C164.9,95 164.9,95 164.7,94.9C165.4,94.4 166,93.9 166.7,93.5C169,92.1 171.5,91.2 174.2,90.6C175.2,90.4 176.3,90.2 177.4,89.9L177.4,111.5C177.4,112.5 177.5,113.6 177.7,114.6C178,116.1 178.7,116.7 180.3,116.8C180.7,116.8 180.9,117 180.8,117.4C180.8,117.6 180.8,117.7 180.8,117.9L169,117.9L169,112.4C168.1,112.9 167.4,113.4 166.6,113.9C164.2,115.4 161.8,116.9 159.5,118.4C159.3,118.5 159.1,118.5 158.8,118.5C157.1,118.4 155.5,118 153.9,117.4C150.9,116.2 149.1,113.5 148.9,110.3C148.7,107.4 149.9,105.1 151.7,103C152.6,102 153.5,101 154.3,99.9C154.6,99.5 154.9,98.9 155.1,98.4C155.6,96.9 155,95.7 153.6,95C152.9,94.7 152.2,94.5 151.4,94.3C151.2,94.5 151.1,94.5 150.9,94.4" style="fill:rgb(129,149,168);fill-rule:nonzero;"/>
    </g>
    <g transform="matrix(1,0,0,1,-52,-19.1)">
        <path d="M315.6,102.6C313.3,103 311.2,103.6 309.5,105.1C307.8,106.6 307,108.4 307.3,110.7C307.5,112.6 309,114.2 310.9,114.6C312.4,114.9 313.8,114.6 315.2,114C315.6,113.8 315.7,113.7 315.7,113.3C315.7,109.9 315.7,106.5 315.7,103.1L315.7,102.6L315.6,102.6ZM327.1,118.1L326.6,118.1C323.6,118.1 320.6,118.1 317.6,118.1C317.3,118.1 317.1,118 316.9,117.8C316.3,117.2 316,116.5 315.7,115.7C315.6,115.5 315.6,115.3 315.5,115C315.2,115.2 315,115.4 314.7,115.6C312.8,117.1 310.7,118.1 308.3,118.4C305.3,118.7 302.5,118.2 300.3,116.1C298.8,114.7 298.1,112.9 298.3,110.8C298.5,108.2 299.9,106.4 301.8,104.9C304,103.3 306.4,102.4 309.1,101.9C311.1,101.6 313.1,101.5 315.1,101.6C315.2,101.6 315.4,101.6 315.5,101.6L315.5,96.9C315.5,95.7 315.2,94.5 314.3,93.6C313,92.3 310.7,92.2 309.3,93.5C308.5,94.2 307.9,95.1 307.2,95.9C306.5,96.6 305.9,97.4 305.2,98C303.7,99.1 301.8,98.9 300.5,97.4C299.3,96.1 298.7,94.6 298.6,92.9C298.5,92.2 298.6,91.5 298.6,90.7C299.2,91 299.7,91.3 300.3,91.5C301.9,92.1 303.6,92.1 305.3,91.6C307.3,91.1 309.2,90.5 311.3,90.3C313.6,90.1 315.8,90.3 318,91.1C319.3,91.6 320.6,92.2 321.7,93C323.2,94.2 324.1,95.7 324.2,97.7C324.2,98.5 324.2,99.3 324.2,100.2C324.2,104.1 324.2,108 324.3,111.8C324.3,113.1 324.5,114.5 325.1,115.7C325.5,116.5 326.1,117 326.7,117.6C326.8,117.9 326.9,118 327.1,118.1" style="fill:rgb(129,149,168);fill-rule:nonzero;"/>
    </g>
    <g transform="matrix(1,0,0,1,-52,-19.1)">
        <path d="M268.3,101.4C265.6,102.1 262.9,101.3 261.6,99.1C260.5,97.1 260.7,94.3 262.2,92.5C263.5,90.9 265.3,90.1 267.3,89.9C270.9,89.5 274,90.8 276.4,93.4C279.6,96.7 280.9,100.7 280.6,105.3C280.4,108.2 279.5,110.9 277.7,113.2C276.1,115.3 274.1,116.8 271.7,117.7C269.4,118.6 267.1,118.8 264.7,118.6C260.7,118.1 257.5,116.3 255.1,113C253.8,111.3 253.1,109.3 252.8,107.1C252.2,102.5 253.8,98.6 257.1,95.4C258.3,94.2 259.7,93.3 261.3,92.5C261,93.2 260.7,93.9 260.5,94.5C259.1,97.8 258.9,101.1 260.1,104.5C261,107.1 262.7,109.2 265.3,110.4C269.1,112.2 273.7,111.3 276.3,107.8C278.6,104.7 278.3,100.3 275.4,97.8C273.8,96.4 271.9,95.8 269.8,96.2C269.1,96.3 268.4,96.6 267.8,96.9C266.1,97.9 266.1,99.9 267.6,101.1C267.9,101.2 268.1,101.3 268.3,101.4" style="fill:rgb(129,149,168);fill-rule:nonzero;"/>
    </g>
    <g transform="matrix(1,0,0,1,-52,-19.1)">
        <path d="M233.3,82.8C236.6,81.1 240.2,80 243.9,79.2L243.9,91L250.7,91L250.7,94.2L243.9,94.2L243.9,108.2C243.9,109.1 244,110 244,110.9C244.1,112.3 245.4,113.4 246.8,113.6C248.2,113.8 249.6,113.5 250.8,112.8C250.9,112.7 251.1,112.6 251.3,112.5C250.8,115.5 249.3,117.7 246.4,118.9C244.2,119.8 241.9,119.9 239.6,119.1C237.3,118.3 235.9,116.6 235.6,114.1C235.5,112.9 235.4,111.8 235.4,110.6L235.4,94.2L230,94.2L230,91L235.4,91C235.4,89.7 235.4,88.4 235.4,87.1C235.4,86.8 235.4,86.5 235.3,86.2C235.2,84.9 234.5,84 233.5,83.2C233.4,83.2 233.4,83.1 233.3,83C233.4,82.9 233.4,82.9 233.3,82.8" style="fill:rgb(129,149,168);fill-rule:nonzero;"/>
    </g>
    <g transform="matrix(1,0,0,1,-52,-19.1)">
        <path d="M201.1,119C200.7,115.8 203.3,110.5 205.8,109.1C205.8,109.5 205.8,109.9 205.9,110.4C206,111.8 206.6,112.9 207.5,113.9C209.5,116.1 212,116.8 214.9,116.6C216.2,116.5 217.4,116.1 218.5,115.3C221,113.4 220.9,109.7 218.4,107.8C217.4,107 216.2,106.6 215,106.2C212.9,105.6 210.8,105 208.6,104.3C207.3,103.9 206.1,103.3 205,102.4C203.4,101 202.8,98.7 203.6,96.7C204.4,94.7 205.9,93.4 207.7,92.4C210.3,91 213,90.5 215.9,90.7C218,90.9 220.1,91 222.3,91C223.9,91 225.5,90.7 226.9,89.7C226.9,89.7 227,89.7 227.1,89.6C227.1,90 227,90.3 227,90.6C226.8,92.1 226.4,93.6 225.4,94.8C225.1,95.2 224.6,95.5 224.2,95.8C223.8,96.1 223.3,96.1 222.8,95.8C222,95.3 221.1,94.7 220.3,94.1C219.3,93.4 218.4,92.7 217.2,92.5C215.9,92.2 214.6,92.3 213.4,93C211.9,94 211.5,95.7 212.3,97.3C212.9,98.3 213.8,99.1 214.9,99.4C216.5,99.9 218.1,100.4 219.7,100.8C221.9,101.4 224.1,102.1 226,103.4C228.2,104.9 229.1,107.1 229,109.7C228.9,112.6 227.5,114.6 225.1,116.1C221.9,118.2 218.3,118.8 214.5,118.3C212.8,118.1 211,117.8 209.3,117.5C207.3,117.2 205.3,117.4 203.4,118.1C202.8,118.4 202,118.7 201.1,119" style="fill:rgb(129,149,168);fill-rule:nonzero;"/>
    </g>
    <g transform="matrix(1,0,0,1,-52,-19.1)">
        <path d="M292.8,77.5L292.8,111.6C292.8,112.8 292.9,114 293.1,115.1C293.3,116.3 294,116.8 295.3,117C295.4,117 295.4,117 295.5,117L295.5,118.1L281,118.1L281,118C280.9,117.1 280.9,117.1 281.8,116.9C283.2,116.7 283.8,116 284,114.7C284.1,113.9 284.2,113 284.2,112.2C284.2,103.6 284.2,94.9 284.2,86.3C284.2,85.9 284.2,85.4 284.1,85C283.8,83.5 282.8,82.7 281.5,82.2C281,82 280.5,81.9 280,81.7C282.6,79.6 288.1,77.3 292.8,77.5" style="fill:rgb(129,149,168);fill-rule:nonzero;"/>
    </g>
    <g transform="matrix(1,0,0,1,-52,-19.1)">
        <path d="M195.3,90.1L195.3,112.5C195.3,113.5 195.4,114.4 195.6,115.4C195.8,116.5 196.4,116.9 197.4,117.1C197.6,117.1 197.7,117.2 197.7,117.4C197.7,117.6 197.7,117.9 197.7,118.1L183.7,118.1L183.7,117.1C183.8,117.1 183.8,117.1 183.9,117.1C185.4,116.9 186,116.3 186.2,114.8C186.3,113.6 186.4,112.4 186.4,111.1C186.4,107.5 186.4,103.8 186.4,100.2C186.4,99.5 186.3,98.7 186.3,98C186.2,96.8 185.5,96.1 184.4,95.7C183.7,95.5 183,95.3 182.3,95.1C186.3,92.4 190.5,90.6 195.3,90.1" style="fill:rgb(129,149,168);fill-rule:nonzero;"/>
    </g>
    <g transform="matrix(1,0,0,1,-52,-19.1)">
        <path d="M186.6,83.5C186.6,81 188.7,79 191.2,79C193.6,79 195.7,81.1 195.7,83.6C195.7,86.1 193.6,88.2 191.1,88.2C188.6,88.1 186.6,86.1 186.6,83.5" style="fill:rgb(129,149,168);fill-rule:nonzero;"/>
    </g>
</svg>
