<?xml version="1.0" encoding="UTF-8" standalone="no"?>
<!DOCTYPE svg PUBLIC "-//W3C//DTD SVG 1.1//EN" "http://www.w3.org/Graphics/SVG/1.1/DTD/svg11.dtd">
<svg width="100%" height="100%" viewBox="0 0 877 74" version="1.1" xmlns="http://www.w3.org/2000/svg" xmlns:xlink="http://www.w3.org/1999/xlink" xml:space="preserve" xmlns:serif="http://www.serif.com/" style="fill-rule:evenodd;clip-rule:evenodd;stroke-linejoin:round;stroke-miterlimit:1.41421;">
    <g transform="matrix(-0.707107,0.707107,0.707107,0.707107,242.355,87.9778)">
        <path d="M-87.57,-36.56L15.432,-36.56L15.144,-36.273L-87.858,-36.273L-87.57,-36.56Z" style="fill:rgb(129,149,168);fill-rule:nonzero;"/>
    </g>
    <g transform="matrix(-0.707107,0.707107,0.707107,0.707107,138.635,87.9461)">
        <path d="M-87.538,-36.548L15.426,-36.548L15.139,-36.26L-87.825,-36.26L-87.538,-36.548Z" style="fill:rgb(129,149,168);fill-rule:nonzero;"/>
    </g>
    <g transform="matrix(-0.707112,0.707102,0.707102,0.707112,36.0729,85.818)">
        <path d="M-85.207,-35.87L14.857,-35.87L15.145,-35.581L-85.494,-35.582L-85.207,-35.87Z" style="fill:rgb(129,149,168);fill-rule:nonzero;"/>
    </g>
    <g transform="matrix(-0.707112,0.707102,0.707102,0.707112,263.098,87.9782)">
        <path d="M-87.571,-36.56L15.431,-36.56L15.143,-36.272L-87.858,-36.273L-87.571,-36.56Z" style="fill:rgb(129,149,168);fill-rule:nonzero;"/>
    </g>
    <g transform="matrix(-0.707107,0.707107,0.707107,0.707107,159.37,87.9778)">
        <path d="M-87.57,-36.56L15.432,-36.56L15.144,-36.273L-87.858,-36.273L-87.57,-36.56Z" style="fill:rgb(129,149,168);fill-rule:nonzero;"/>
    </g>
    <g transform="matrix(-0.707107,0.707107,0.707107,0.707107,55.7334,87.7493)">
        <path d="M-87.341,-36.466L15.392,-36.466L15.106,-36.178L-87.629,-36.178L-87.341,-36.466Z" style="fill:rgb(129,149,168);fill-rule:nonzero;"/>
    </g>
    <g transform="matrix(-0.707107,0.707107,0.707107,0.707107,283.847,87.9778)">
        <path d="M-87.57,-36.56L15.432,-36.56L15.145,-36.273L-87.858,-36.273L-87.57,-36.56Z" style="fill:rgb(129,149,168);fill-rule:nonzero;"/>
    </g>
    <g transform="matrix(-0.707112,0.707102,0.707102,0.707112,180.111,87.9782)">
        <path d="M-87.571,-36.56L15.431,-36.56L15.143,-36.272L-87.858,-36.273L-87.571,-36.56Z" style="fill:rgb(129,149,168);fill-rule:nonzero;"/>
    </g>
    <g transform="matrix(-0.707107,0.707107,0.707107,0.707107,76.4575,87.7976)">
        <path d="M-87.389,-36.486L15.402,-36.486L15.114,-36.198L-87.678,-36.198L-87.389,-36.486Z" style="fill:rgb(129,149,168);fill-rule:nonzero;"/>
    </g>
    <g transform="matrix(-0.707107,0.707107,0.707107,0.707107,4.95329,10.6877)">
        <path d="M-10.076,-4.749L1.967,-4.749L2.255,-4.462L-10.364,-4.462L-10.076,-4.749Z" style="fill:rgb(129,149,168);fill-rule:nonzero;"/>
    </g>
    <g transform="matrix(-0.707107,0.707107,0.707107,0.707107,304.596,87.9775)">
        <path d="M-87.569,-36.561L15.432,-36.561L15.144,-36.272L-87.857,-36.272L-87.569,-36.561Z" style="fill:rgb(129,149,168);fill-rule:nonzero;"/>
    </g>
    <g transform="matrix(-0.707107,0.707107,0.707107,0.707107,200.861,87.9778)">
        <path d="M-87.57,-36.56L15.432,-36.56L15.145,-36.273L-87.858,-36.273L-87.57,-36.56Z" style="fill:rgb(129,149,168);fill-rule:nonzero;"/>
    </g>
    <g transform="matrix(-0.707107,0.707107,0.707107,0.707107,97.1812,87.8474)">
        <path d="M-87.439,-36.506L15.408,-36.506L15.122,-36.219L-87.727,-36.219L-87.439,-36.506Z" style="fill:rgb(129,149,168);fill-rule:nonzero;"/>
    </g>
    <g transform="matrix(-0.707107,0.707107,0.707107,0.707107,15.3254,35.7279)">
        <path d="M-35.116,-15.121L6.263,-15.121L6.551,-14.833L-35.404,-14.834L-35.116,-15.121Z" style="fill:rgb(129,149,168);fill-rule:nonzero;"/>
    </g>
    <g transform="matrix(-0.707107,0.707107,0.707107,0.707107,325.342,87.9775)">
        <path d="M-87.569,-36.561L15.432,-36.561L15.144,-36.272L-87.857,-36.272L-87.569,-36.561Z" style="fill:rgb(129,149,168);fill-rule:nonzero;"/>
    </g>
    <g transform="matrix(-0.707107,0.707107,0.707107,0.707107,221.608,87.9778)">
        <path d="M-87.57,-36.56L15.432,-36.56L15.145,-36.273L-87.858,-36.273L-87.57,-36.56Z" style="fill:rgb(129,149,168);fill-rule:nonzero;"/>
    </g>
    <g transform="matrix(-0.707107,0.707107,0.707107,0.707107,117.913,87.8962)">
        <path d="M-87.487,-36.528L15.418,-36.528L15.13,-36.238L-87.776,-36.239L-87.487,-36.528Z" style="fill:rgb(129,149,168);fill-rule:nonzero;"/>
    </g>
    <g transform="matrix(-0.707107,0.707107,0.707107,0.707107,25.7015,60.7775)">
        <path d="M-60.165,-25.498L10.561,-25.498L10.849,-25.209L-60.453,-25.21L-60.165,-25.498Z" style="fill:rgb(129,149,168);fill-rule:nonzero;"/>
    </g>
    <g transform="matrix(-0.707107,0.707107,0.707107,0.707107,553.549,87.9775)">
        <path d="M-87.569,-36.561L15.432,-36.561L15.144,-36.272L-87.857,-36.272L-87.569,-36.561Z" style="fill:rgb(129,149,168);fill-rule:nonzero;"/>
    </g>
    <g transform="matrix(-0.707107,0.707107,0.707107,0.707107,678.028,87.9775)">
        <path d="M-87.569,-36.561L15.432,-36.561L15.145,-36.273L-87.857,-36.272L-87.569,-36.561Z" style="fill:rgb(129,149,168);fill-rule:nonzero;"/>
    </g>
    <g transform="matrix(-0.707107,0.707107,0.707107,0.707107,449.819,87.9775)">
        <path d="M-87.569,-36.561L15.432,-36.561L15.144,-36.272L-87.857,-36.272L-87.569,-36.561Z" style="fill:rgb(129,149,168);fill-rule:nonzero;"/>
    </g>
    <g transform="matrix(-0.707107,0.707107,0.707107,0.707107,346.084,87.9778)">
        <path d="M-87.57,-36.56L15.432,-36.56L15.145,-36.273L-87.858,-36.273L-87.57,-36.56Z" style="fill:rgb(129,149,168);fill-rule:nonzero;"/>
    </g>
    <g transform="matrix(-0.707112,0.707102,0.707102,0.707112,574.297,87.9778)">
        <path d="M-87.57,-36.561L15.432,-36.561L15.143,-36.272L-87.858,-36.272L-87.57,-36.561Z" style="fill:rgb(129,149,168);fill-rule:nonzero;"/>
    </g>
    <g transform="matrix(-0.707112,0.707102,0.707102,0.707112,698.773,87.9778)">
        <path d="M-87.57,-36.561L15.432,-36.561L15.143,-36.272L-87.858,-36.272L-87.57,-36.561Z" style="fill:rgb(129,149,168);fill-rule:nonzero;"/>
    </g>
    <g transform="matrix(-0.707107,0.707107,0.707107,0.707107,470.566,87.9771)">
        <path d="M-87.568,-36.561L15.433,-36.561L15.144,-36.272L-87.857,-36.272L-87.568,-36.561Z" style="fill:rgb(129,149,168);fill-rule:nonzero;"/>
    </g>
    <g transform="matrix(-0.707107,0.707107,0.707107,0.707107,366.831,87.9778)">
        <path d="M-87.57,-36.56L15.432,-36.56L15.145,-36.273L-87.858,-36.273L-87.57,-36.56Z" style="fill:rgb(129,149,168);fill-rule:nonzero;"/>
    </g>
    <g transform="matrix(-0.707107,0.707107,0.707107,0.707107,595.04,87.9775)">
        <path d="M-87.569,-36.561L15.432,-36.561L15.145,-36.273L-87.857,-36.272L-87.569,-36.561Z" style="fill:rgb(129,149,168);fill-rule:nonzero;"/>
    </g>
    <g transform="matrix(1,0,0,1,682.753,2.8049)">
        <path d="M0,70.233L0.408,70.233L70.258,0.383L70.234,0L0,70.233Z" style="fill:rgb(129,149,168);fill-rule:nonzero;"/>
    </g>
    <g transform="matrix(-0.707112,0.707102,0.707102,0.707112,491.309,87.9778)">
        <path d="M-87.57,-36.561L15.432,-36.561L15.143,-36.272L-87.858,-36.272L-87.57,-36.561Z" style="fill:rgb(129,149,168);fill-rule:nonzero;"/>
    </g>
    <g transform="matrix(-0.707107,0.707107,0.707107,0.707107,387.58,87.9778)">
        <path d="M-87.57,-36.56L15.432,-36.56L15.144,-36.273L-87.858,-36.273L-87.57,-36.56Z" style="fill:rgb(129,149,168);fill-rule:nonzero;"/>
    </g>
    <g transform="matrix(-0.707112,0.707102,0.707102,0.707112,615.786,87.9778)">
        <path d="M-87.57,-36.561L15.432,-36.561L15.143,-36.272L-87.858,-36.272L-87.57,-36.561Z" style="fill:rgb(129,149,168);fill-rule:nonzero;"/>
    </g>
    <g transform="matrix(1,0,0,1,703.5,22.3199)">
        <path d="M0,50.718L0.409,50.718L50.743,0.384L50.718,0L0,50.718Z" style="fill:rgb(129,149,168);fill-rule:nonzero;"/>
    </g>
    <g transform="matrix(-0.707107,0.707107,0.707107,0.707107,512.058,87.9771)">
        <path d="M-87.568,-36.561L15.433,-36.561L15.145,-36.273L-87.857,-36.272L-87.568,-36.561Z" style="fill:rgb(129,149,168);fill-rule:nonzero;"/>
    </g>
    <g transform="matrix(-0.707107,0.707107,0.707107,0.707107,636.537,87.9771)">
        <path d="M-87.568,-36.561L15.433,-36.561L15.145,-36.273L-87.857,-36.272L-87.568,-36.561Z" style="fill:rgb(129,149,168);fill-rule:nonzero;"/>
    </g>
    <g transform="matrix(-0.707107,0.707107,0.707107,0.707107,408.323,87.9775)">
        <path d="M-87.569,-36.561L15.432,-36.561L15.145,-36.273L-87.857,-36.272L-87.569,-36.561Z" style="fill:rgb(129,149,168);fill-rule:nonzero;"/>
    </g>
    <g transform="matrix(1,0,0,1,724.247,41.8349)">
        <path d="M0,31.203L0.408,31.203L31.227,0.384L31.203,0L0,31.203Z" style="fill:rgb(129,149,168);fill-rule:nonzero;"/>
    </g>
    <g transform="matrix(-0.707107,0.707107,0.707107,0.707107,532.802,87.9775)">
        <path d="M-87.569,-36.561L15.432,-36.561L15.145,-36.273L-87.857,-36.272L-87.569,-36.561Z" style="fill:rgb(129,149,168);fill-rule:nonzero;"/>
    </g>
    <g transform="matrix(-0.707107,0.707107,0.707107,0.707107,657.278,87.9775)">
        <path d="M-87.569,-36.561L15.432,-36.561L15.144,-36.272L-87.857,-36.272L-87.569,-36.561Z" style="fill:rgb(129,149,168);fill-rule:nonzero;"/>
    </g>
    <g transform="matrix(-0.707112,0.707102,0.707102,0.707112,429.071,87.9778)">
        <path d="M-87.57,-36.561L15.432,-36.561L15.143,-36.272L-87.858,-36.272L-87.57,-36.561Z" style="fill:rgb(129,149,168);fill-rule:nonzero;"/>
    </g>
    <g transform="matrix(0.707107,0.707107,0.707107,-0.707107,489.869,-15.024)">
        <path d="M-15.024,-36.561L87.977,-36.561L88.265,-36.272L-14.736,-36.272L-15.024,-36.561Z" style="fill:rgb(129,149,168);fill-rule:nonzero;"/>
    </g>
    <g transform="matrix(0.707112,0.707102,0.707102,-0.707112,593.602,-15.0243)">
        <path d="M-15.024,-36.561L87.978,-36.561L88.266,-36.272L-14.736,-36.272L-15.024,-36.561Z" style="fill:rgb(129,149,168);fill-rule:nonzero;"/>
    </g>
    <g transform="matrix(0.707107,0.707107,0.707107,-0.707107,697.333,-15.024)">
        <path d="M-15.024,-36.561L87.977,-36.561L88.265,-36.272L-14.736,-36.272L-15.024,-36.561Z" style="fill:rgb(129,149,168);fill-rule:nonzero;"/>
    </g>
    <g transform="matrix(0.707107,0.707107,0.707107,-0.707107,469.124,-15.024)">
        <path d="M-15.024,-36.561L87.977,-36.561L88.265,-36.272L-14.736,-36.272L-15.024,-36.561Z" style="fill:rgb(129,149,168);fill-rule:nonzero;"/>
    </g>
    <g transform="matrix(0.707107,0.707107,0.707107,-0.707107,572.854,-15.0243)">
        <path d="M-15.024,-36.561L87.977,-36.561L88.266,-36.272L-14.736,-36.273L-15.024,-36.561Z" style="fill:rgb(129,149,168);fill-rule:nonzero;"/>
    </g>
    <g transform="matrix(0.707107,0.707107,0.707107,-0.707107,676.588,-15.024)">
        <path d="M-15.024,-36.561L87.977,-36.561L88.265,-36.272L-14.736,-36.272L-15.024,-36.561Z" style="fill:rgb(129,149,168);fill-rule:nonzero;"/>
    </g>
    <g transform="matrix(0.707107,0.707107,0.707107,-0.707107,448.377,-15.024)">
        <path d="M-15.024,-36.561L87.977,-36.561L88.265,-36.272L-14.737,-36.273L-15.024,-36.561Z" style="fill:rgb(129,149,168);fill-rule:nonzero;"/>
    </g>
    <g transform="matrix(0.707107,0.707107,0.707107,-0.707107,552.111,-15.024)">
        <path d="M-15.024,-36.561L87.977,-36.561L88.265,-36.272L-14.736,-36.272L-15.024,-36.561Z" style="fill:rgb(129,149,168);fill-rule:nonzero;"/>
    </g>
    <g transform="matrix(0.707107,0.707107,0.707107,-0.707107,655.841,-15.0243)">
        <path d="M-15.024,-36.561L87.977,-36.561L88.266,-36.272L-14.736,-36.273L-15.024,-36.561Z" style="fill:rgb(129,149,168);fill-rule:nonzero;"/>
    </g>
    <g transform="matrix(0.707107,0.707107,0.707107,-0.707107,427.628,-15.024)">
        <path d="M-15.024,-36.561L87.977,-36.561L88.265,-36.272L-14.736,-36.272L-15.024,-36.561Z" style="fill:rgb(129,149,168);fill-rule:nonzero;"/>
    </g>
    <g transform="matrix(0.707107,0.707107,0.707107,-0.707107,531.362,-15.024)">
        <path d="M-15.024,-36.561L87.977,-36.561L88.265,-36.272L-14.736,-36.272L-15.024,-36.561Z" style="fill:rgb(129,149,168);fill-rule:nonzero;"/>
    </g>
    <g transform="matrix(0.707107,0.707107,0.707107,-0.707107,635.097,-15.0236)">
        <path d="M-15.025,-36.56L87.977,-36.56L88.265,-36.273L-14.737,-36.273L-15.025,-36.56Z" style="fill:rgb(129,149,168);fill-rule:nonzero;"/>
    </g>
    <g transform="matrix(0.707107,0.707107,0.707107,-0.707107,406.882,-15.024)">
        <path d="M-15.024,-36.561L87.977,-36.561L88.265,-36.272L-14.736,-36.272L-15.024,-36.561Z" style="fill:rgb(129,149,168);fill-rule:nonzero;"/>
    </g>
    <g transform="matrix(0.707112,0.707102,0.707102,-0.707112,510.615,-15.0243)">
        <path d="M-15.024,-36.561L87.978,-36.561L88.266,-36.272L-14.736,-36.272L-15.024,-36.561Z" style="fill:rgb(129,149,168);fill-rule:nonzero;"/>
    </g>
    <g transform="matrix(0.707107,0.707107,0.707107,-0.707107,614.345,-15.0243)">
        <path d="M-15.024,-36.561L87.977,-36.561L88.266,-36.272L-14.736,-36.273L-15.024,-36.561Z" style="fill:rgb(129,149,168);fill-rule:nonzero;"/>
    </g>
    <g transform="matrix(0.707107,0.707107,0.707107,-0.707107,178.676,-15.024)">
        <path d="M-15.024,-36.561L87.977,-36.561L88.265,-36.272L-14.737,-36.273L-15.024,-36.561Z" style="fill:rgb(129,149,168);fill-rule:nonzero;"/>
    </g>
    <g transform="matrix(0.707107,0.707107,0.707107,-0.707107,282.405,-15.024)">
        <path d="M-15.024,-36.561L87.977,-36.561L88.265,-36.272L-14.737,-36.273L-15.024,-36.561Z" style="fill:rgb(129,149,168);fill-rule:nonzero;"/>
    </g>
    <g transform="matrix(0.707107,0.707107,0.707107,-0.707107,386.139,-15.0243)">
        <path d="M-15.024,-36.561L87.977,-36.561L88.266,-36.272L-14.736,-36.273L-15.024,-36.561Z" style="fill:rgb(129,149,168);fill-rule:nonzero;"/>
    </g>
    <g transform="matrix(0.707107,0.707107,0.707107,-0.707107,748.634,-1.78103)">
        <path d="M-1.986,-4.794L11.573,-4.794L11.245,-4.504L-1.696,-4.504L-1.986,-4.794Z" style="fill:rgb(129,149,168);fill-rule:nonzero;"/>
    </g>
    <g transform="matrix(0.707107,0.707107,0.707107,-0.707107,261.658,-15.024)">
        <path d="M-15.024,-36.561L87.977,-36.561L88.265,-36.272L-14.737,-36.273L-15.024,-36.561Z" style="fill:rgb(129,149,168);fill-rule:nonzero;"/>
    </g>
    <g transform="matrix(0.707107,0.707107,0.707107,-0.707107,365.392,-15.024)">
        <path d="M-15.024,-36.561L87.977,-36.561L88.265,-36.272L-14.737,-36.273L-15.024,-36.561Z" style="fill:rgb(129,149,168);fill-rule:nonzero;"/>
    </g>
    <g transform="matrix(0.707107,0.707107,0.707107,-0.707107,738.962,-6.36617)">
        <path d="M-6.571,-15.863L38.297,-15.863L37.969,-15.574L-6.281,-15.574L-6.571,-15.863Z" style="fill:rgb(129,149,168);fill-rule:nonzero;"/>
    </g>
    <g transform="matrix(0.707107,0.707107,0.707107,-0.707107,240.914,-15.0236)">
        <path d="M-15.025,-36.56L87.977,-36.56L88.265,-36.273L-14.737,-36.273L-15.025,-36.56Z" style="fill:rgb(129,149,168);fill-rule:nonzero;"/>
    </g>
    <g transform="matrix(0.707107,0.707107,0.707107,-0.707107,344.643,-15.0243)">
        <path d="M-15.024,-36.561L87.977,-36.561L88.266,-36.272L-14.736,-36.273L-15.024,-36.561Z" style="fill:rgb(129,149,168);fill-rule:nonzero;"/>
    </g>
    <g transform="matrix(0.707107,0.707107,0.707107,-0.707107,729.286,-10.953)">
        <path d="M-11.157,-26.937L65.03,-26.937L64.702,-26.648L-10.869,-26.648L-11.157,-26.937Z" style="fill:rgb(129,149,168);fill-rule:nonzero;"/>
    </g>
    <g transform="matrix(0.707107,0.707107,0.707107,-0.707107,220.167,-15.0236)">
        <path d="M-15.025,-36.56L87.977,-36.56L88.265,-36.273L-14.737,-36.273L-15.025,-36.56Z" style="fill:rgb(129,149,168);fill-rule:nonzero;"/>
    </g>
    <g transform="matrix(0.707107,0.707107,0.707107,-0.707107,323.901,-15.0236)">
        <path d="M-15.025,-36.56L87.977,-36.56L88.265,-36.273L-14.737,-36.273L-15.025,-36.56Z" style="fill:rgb(129,149,168);fill-rule:nonzero;"/>
    </g>
    <g transform="matrix(0.707107,0.707107,0.707107,-0.707107,718.079,-15.024)">
        <path d="M-15.024,-36.561L87.977,-36.561L88.265,-36.272L-14.736,-36.272L-15.024,-36.561Z" style="fill:rgb(129,149,168);fill-rule:nonzero;"/>
    </g>
    <g transform="matrix(0.707107,0.707107,0.707107,-0.707107,199.422,-15.0236)">
        <path d="M-15.025,-36.56L87.977,-36.56L88.265,-36.273L-14.737,-36.273L-15.025,-36.56Z" style="fill:rgb(129,149,168);fill-rule:nonzero;"/>
    </g>
    <g transform="matrix(0.707112,0.707102,0.707102,-0.707112,303.152,-15.024)">
        <path d="M-15.024,-36.56L87.978,-36.56L88.265,-36.273L-14.737,-36.273L-15.024,-36.56Z" style="fill:rgb(129,149,168);fill-rule:nonzero;"/>
    </g>
    <g transform="matrix(0.707107,0.707107,0.707107,-0.707107,14.1069,38.8953)">
        <path d="M-5.59,-14.071L33.97,-14.071L34.259,-13.784L-5.878,-13.784L-5.59,-14.071Z" style="fill:rgb(129,149,168);fill-rule:nonzero;"/>
    </g>
    <g transform="matrix(0.707107,0.707107,0.707107,-0.707107,95.7221,-15.0236)">
        <path d="M-15.025,-36.56L87.977,-36.56L88.265,-36.273L-14.737,-36.273L-15.025,-36.56Z" style="fill:rgb(129,149,168);fill-rule:nonzero;"/>
    </g>
    <g transform="matrix(0.707102,0.707112,0.707112,-0.707102,74.9714,-15.0223)">
        <path d="M-15.023,-36.557L87.967,-36.557L88.256,-36.268L-14.734,-36.269L-15.023,-36.557Z" style="fill:rgb(129,149,168);fill-rule:nonzero;"/>
    </g>
    <g transform="matrix(0.707107,0.707107,0.707107,-0.707107,54.2058,-15.0135)">
        <path d="M-15.014,-36.536L87.918,-36.536L88.205,-36.248L-14.727,-36.248L-15.014,-36.536Z" style="fill:rgb(129,149,168);fill-rule:nonzero;"/>
    </g>
    <g transform="matrix(0.707107,0.707107,0.707107,-0.707107,157.96,-15.024)">
        <path d="M-15.024,-36.561L87.977,-36.561L88.265,-36.272L-14.737,-36.273L-15.024,-36.561Z" style="fill:rgb(129,149,168);fill-rule:nonzero;"/>
    </g>
    <g transform="matrix(0.707107,0.707107,0.707107,-0.707107,34.8934,-11.2059)">
        <path d="M-14.2,-34.858L84.153,-34.858L84.442,-34.57L-14.488,-34.57L-14.2,-34.858Z" style="fill:rgb(129,149,168);fill-rule:nonzero;"/>
    </g>
    <g transform="matrix(0.707112,0.707102,0.707102,-0.707112,137.218,-15.0236)">
        <path d="M-15.025,-36.56L87.978,-36.56L88.265,-36.273L-14.738,-36.273L-15.025,-36.56Z" style="fill:rgb(129,149,168);fill-rule:nonzero;"/>
    </g>
    <g transform="matrix(0.707107,0.707107,0.707107,-0.707107,24.5008,13.8433)">
        <path d="M-9.896,-24.465L59.063,-24.465L59.351,-24.178L-10.183,-24.177L-9.896,-24.465Z" style="fill:rgb(129,149,168);fill-rule:nonzero;"/>
    </g>
    <g transform="matrix(0.707107,0.707107,0.707107,-0.707107,116.469,-15.0236)">
        <path d="M-15.025,-36.56L87.977,-36.56L88.265,-36.273L-14.737,-36.273L-15.025,-36.56Z" style="fill:rgb(129,149,168);fill-rule:nonzero;"/>
    </g>
    <g transform="matrix(1,0,0,1,0.2042,-40.4571)">
        <rect x="322.999" y="55.329" width="2.837" height="2.837" style="fill:rgb(129,149,168);"/>
    </g>
    <g transform="matrix(1,0,0,1,0.2042,-40.4351)">
        <rect x="343.747" y="55.318" width="2.837" height="2.837" style="fill:rgb(129,149,168);"/>
    </g>
    <g transform="matrix(1,0,0,1,0.2042,-40.4571)">
        <rect x="364.495" y="55.329" width="2.837" height="2.837" style="fill:rgb(129,149,168);"/>
    </g>
    <g transform="matrix(1,0,0,1,0.2042,-40.4351)">
        <rect x="385.242" y="55.318" width="2.837" height="2.837" style="fill:rgb(129,149,168);"/>
    </g>
    <g transform="matrix(1,0,0,1,0.2042,-40.4351)">
        <rect x="405.99" y="55.318" width="2.837" height="2.837" style="fill:rgb(129,149,168);"/>
    </g>
    <g transform="matrix(1,0,0,1,0.2042,-40.4571)">
        <rect x="426.738" y="55.329" width="2.837" height="2.837" style="fill:rgb(129,149,168);"/>
    </g>
    <g transform="matrix(1,0,0,1,0.2042,-40.4351)">
        <rect x="447.485" y="55.318" width="2.837" height="2.837" style="fill:rgb(129,149,168);"/>
    </g>
    <g transform="matrix(1,0,0,1,0.2042,1.8389)">
        <rect x="322.999" y="34.181" width="2.837" height="2.837" style="fill:rgb(129,149,168);"/>
    </g>
    <g transform="matrix(1,0,0,1,0.2042,1.8589)">
        <rect x="343.747" y="34.171" width="2.837" height="2.837" style="fill:rgb(129,149,168);"/>
    </g>
    <g transform="matrix(1,0,0,1,0.2042,1.8389)">
        <rect x="364.495" y="34.181" width="2.837" height="2.837" style="fill:rgb(129,149,168);"/>
    </g>
    <g transform="matrix(1,0,0,1,0.2042,1.8589)">
        <rect x="385.242" y="34.171" width="2.837" height="2.837" style="fill:rgb(129,149,168);"/>
    </g>
    <g transform="matrix(1,0,0,1,0.2042,1.8589)">
        <rect x="405.99" y="34.171" width="2.837" height="2.837" style="fill:rgb(129,149,168);"/>
    </g>
    <g transform="matrix(1,0,0,1,0.2042,1.8389)">
        <rect x="426.738" y="34.181" width="2.837" height="2.837" style="fill:rgb(129,149,168);"/>
    </g>
    <g transform="matrix(1,0,0,1,0.2042,1.8589)">
        <rect x="447.485" y="34.171" width="2.837" height="2.837" style="fill:rgb(129,149,168);"/>
    </g>
    <g transform="matrix(1,0,0,1,0.2042,42.9929)">
        <rect x="322.999" y="13.604" width="2.837" height="2.837" style="fill:rgb(129,149,168);"/>
    </g>
    <g transform="matrix(1,0,0,1,0.2042,43.0139)">
        <rect x="343.747" y="13.593" width="2.837" height="2.838" style="fill:rgb(129,149,168);"/>
    </g>
    <g transform="matrix(1,0,0,1,0.2042,42.9929)">
        <rect x="364.495" y="13.604" width="2.837" height="2.837" style="fill:rgb(129,149,168);"/>
    </g>
    <g transform="matrix(1,0,0,1,0.2042,43.0139)">
        <rect x="385.242" y="13.593" width="2.837" height="2.838" style="fill:rgb(129,149,168);"/>
    </g>
    <g transform="matrix(1,0,0,1,0.2042,43.0139)">
        <rect x="405.99" y="13.593" width="2.837" height="2.838" style="fill:rgb(129,149,168);"/>
    </g>
    <g transform="matrix(1,0,0,1,0.2042,42.9929)">
        <rect x="426.738" y="13.604" width="2.837" height="2.837" style="fill:rgb(129,149,168);"/>
    </g>
    <g transform="matrix(1,0,0,1,0.2042,43.0139)">
        <rect x="447.485" y="13.593" width="2.837" height="2.838" style="fill:rgb(129,149,168);"/>
    </g>
    <g transform="matrix(1,0,0,1,0.2042,-40.4571)">
        <rect x="198.513" y="55.329" width="2.837" height="2.837" style="fill:rgb(129,149,168);"/>
    </g>
    <g transform="matrix(1,0,0,1,0.2042,-40.4351)">
        <rect x="219.261" y="55.318" width="2.837" height="2.837" style="fill:rgb(129,149,168);"/>
    </g>
    <g transform="matrix(1,0,0,1,0.2042,-40.4571)">
        <rect x="240.008" y="55.329" width="2.837" height="2.837" style="fill:rgb(129,149,168);"/>
    </g>
    <g transform="matrix(1,0,0,1,0.2042,-40.4351)">
        <rect x="260.756" y="55.318" width="2.837" height="2.837" style="fill:rgb(129,149,168);"/>
    </g>
    <g transform="matrix(1,0,0,1,0.2042,-40.4351)">
        <rect x="281.504" y="55.318" width="2.837" height="2.837" style="fill:rgb(129,149,168);"/>
    </g>
    <g transform="matrix(1,0,0,1,0.2042,-40.4571)">
        <rect x="302.251" y="55.329" width="2.837" height="2.837" style="fill:rgb(129,149,168);"/>
    </g>
    <g transform="matrix(1,0,0,1,0.2042,1.8389)">
        <rect x="198.513" y="34.181" width="2.837" height="2.837" style="fill:rgb(129,149,168);"/>
    </g>
    <g transform="matrix(1,0,0,1,0.2042,1.8589)">
        <rect x="219.261" y="34.171" width="2.837" height="2.837" style="fill:rgb(129,149,168);"/>
    </g>
    <g transform="matrix(1,0,0,1,0.2042,1.8389)">
        <rect x="240.008" y="34.181" width="2.837" height="2.837" style="fill:rgb(129,149,168);"/>
    </g>
    <g transform="matrix(1,0,0,1,0.2042,1.8589)">
        <rect x="260.756" y="34.171" width="2.837" height="2.837" style="fill:rgb(129,149,168);"/>
    </g>
    <g transform="matrix(1,0,0,1,0.2042,1.8589)">
        <rect x="281.504" y="34.171" width="2.837" height="2.837" style="fill:rgb(129,149,168);"/>
    </g>
    <g transform="matrix(1,0,0,1,0.2042,1.8389)">
        <rect x="302.251" y="34.181" width="2.837" height="2.837" style="fill:rgb(129,149,168);"/>
    </g>
    <g transform="matrix(1,0,0,1,0.2042,42.9929)">
        <rect x="198.513" y="13.604" width="2.837" height="2.837" style="fill:rgb(129,149,168);"/>
    </g>
    <g transform="matrix(1,0,0,1,0.2042,43.0139)">
        <rect x="219.261" y="13.593" width="2.837" height="2.838" style="fill:rgb(129,149,168);"/>
    </g>
    <g transform="matrix(1,0,0,1,0.2042,42.9929)">
        <rect x="240.008" y="13.604" width="2.837" height="2.837" style="fill:rgb(129,149,168);"/>
    </g>
    <g transform="matrix(1,0,0,1,0.2042,43.0139)">
        <rect x="260.756" y="13.593" width="2.837" height="2.838" style="fill:rgb(129,149,168);"/>
    </g>
    <g transform="matrix(1,0,0,1,0.2042,43.0139)">
        <rect x="281.504" y="13.593" width="2.837" height="2.838" style="fill:rgb(129,149,168);"/>
    </g>
    <g transform="matrix(1,0,0,1,0.2042,42.9929)">
        <rect x="302.251" y="13.604" width="2.837" height="2.837" style="fill:rgb(129,149,168);"/>
    </g>
    <g transform="matrix(1,0,0,1,0.2042,-40.4571)">
        <rect x="571.972" y="55.329" width="2.837" height="2.837" style="fill:rgb(129,149,168);"/>
    </g>
    <g transform="matrix(1,0,0,1,0.2042,-40.4351)">
        <rect x="592.719" y="55.318" width="2.837" height="2.837" style="fill:rgb(129,149,168);"/>
    </g>
    <g transform="matrix(1,0,0,1,0.2042,-40.4571)">
        <rect x="613.467" y="55.329" width="2.837" height="2.837" style="fill:rgb(129,149,168);"/>
    </g>
    <g transform="matrix(1,0,0,1,0.2042,-40.4351)">
        <rect x="634.215" y="55.318" width="2.837" height="2.837" style="fill:rgb(129,149,168);"/>
    </g>
    <g transform="matrix(1,0,0,1,0.2042,-40.4351)">
        <rect x="654.962" y="55.318" width="2.837" height="2.837" style="fill:rgb(129,149,168);"/>
    </g>
    <g transform="matrix(1,0,0,1,0.2042,-40.4571)">
        <rect x="675.71" y="55.329" width="2.837" height="2.837" style="fill:rgb(129,149,168);"/>
    </g>
    <g transform="matrix(1,0,0,1,0.2042,-40.4351)">
        <rect x="696.458" y="55.318" width="2.837" height="2.837" style="fill:rgb(129,149,168);"/>
    </g>
    <g transform="matrix(1,0,0,1,0.2042,1.8389)">
        <rect x="571.972" y="34.181" width="2.837" height="2.837" style="fill:rgb(129,149,168);"/>
    </g>
    <g transform="matrix(1,0,0,1,0.2042,1.8589)">
        <rect x="592.719" y="34.171" width="2.837" height="2.837" style="fill:rgb(129,149,168);"/>
    </g>
    <g transform="matrix(1,0,0,1,0.2042,1.8389)">
        <rect x="613.467" y="34.181" width="2.837" height="2.837" style="fill:rgb(129,149,168);"/>
    </g>
    <g transform="matrix(1,0,0,1,0.2042,1.8589)">
        <rect x="634.215" y="34.171" width="2.837" height="2.837" style="fill:rgb(129,149,168);"/>
    </g>
    <g transform="matrix(1,0,0,1,0.2042,1.8589)">
        <rect x="654.962" y="34.171" width="2.837" height="2.837" style="fill:rgb(129,149,168);"/>
    </g>
    <g transform="matrix(1,0,0,1,0.2042,1.8389)">
        <rect x="675.71" y="34.181" width="2.837" height="2.837" style="fill:rgb(129,149,168);"/>
    </g>
    <g transform="matrix(1,0,0,1,0.2042,1.8589)">
        <rect x="696.458" y="34.171" width="2.837" height="2.837" style="fill:rgb(129,149,168);"/>
    </g>
    <g transform="matrix(1,0,0,1,0.2042,42.9929)">
        <rect x="571.972" y="13.604" width="2.837" height="2.837" style="fill:rgb(129,149,168);"/>
    </g>
    <g transform="matrix(1,0,0,1,0.2042,43.0139)">
        <rect x="592.719" y="13.593" width="2.837" height="2.838" style="fill:rgb(129,149,168);"/>
    </g>
    <g transform="matrix(1,0,0,1,0.2042,42.9929)">
        <rect x="613.467" y="13.604" width="2.837" height="2.837" style="fill:rgb(129,149,168);"/>
    </g>
    <g transform="matrix(1,0,0,1,0.2042,43.0139)">
        <rect x="634.215" y="13.593" width="2.837" height="2.838" style="fill:rgb(129,149,168);"/>
    </g>
    <g transform="matrix(1,0,0,1,0.2042,43.0139)">
        <rect x="654.962" y="13.593" width="2.837" height="2.838" style="fill:rgb(129,149,168);"/>
    </g>
    <g transform="matrix(1,0,0,1,0.2042,42.9929)">
        <rect x="675.71" y="13.604" width="2.837" height="2.837" style="fill:rgb(129,149,168);"/>
    </g>
    <g transform="matrix(1,0,0,1,0.2042,43.0139)">
        <rect x="696.458" y="13.593" width="2.837" height="2.838" style="fill:rgb(129,149,168);"/>
    </g>
    <g transform="matrix(1,0,0,1,0.2042,-40.4351)">
        <rect x="468.233" y="55.318" width="2.837" height="2.837" style="fill:rgb(129,149,168);"/>
    </g>
    <g transform="matrix(1,0,0,1,0.2042,-40.4571)">
        <rect x="488.981" y="55.329" width="2.837" height="2.837" style="fill:rgb(129,149,168);"/>
    </g>
    <g transform="matrix(1,0,0,1,0.2042,-40.4351)">
        <rect x="509.728" y="55.318" width="2.837" height="2.837" style="fill:rgb(129,149,168);"/>
    </g>
    <g transform="matrix(1,0,0,1,0.2042,-40.4351)">
        <rect x="530.476" y="55.318" width="2.837" height="2.837" style="fill:rgb(129,149,168);"/>
    </g>
    <g transform="matrix(1,0,0,1,0.2042,-40.4571)">
        <rect x="551.224" y="55.329" width="2.837" height="2.837" style="fill:rgb(129,149,168);"/>
    </g>
    <g transform="matrix(1,0,0,1,0.2042,1.8589)">
        <rect x="468.233" y="34.171" width="2.837" height="2.837" style="fill:rgb(129,149,168);"/>
    </g>
    <g transform="matrix(1,0,0,1,0.2042,1.8389)">
        <rect x="488.981" y="34.181" width="2.837" height="2.837" style="fill:rgb(129,149,168);"/>
    </g>
    <g transform="matrix(1,0,0,1,0.2042,1.8589)">
        <rect x="509.728" y="34.171" width="2.837" height="2.837" style="fill:rgb(129,149,168);"/>
    </g>
    <g transform="matrix(1,0,0,1,0.2042,1.8589)">
        <rect x="530.476" y="34.171" width="2.837" height="2.837" style="fill:rgb(129,149,168);"/>
    </g>
    <g transform="matrix(1,0,0,1,0.2042,1.8389)">
        <rect x="551.224" y="34.181" width="2.837" height="2.837" style="fill:rgb(129,149,168);"/>
    </g>
    <g transform="matrix(1,0,0,1,0.2042,43.0139)">
        <rect x="468.233" y="13.593" width="2.837" height="2.838" style="fill:rgb(129,149,168);"/>
    </g>
    <g transform="matrix(1,0,0,1,0.2042,42.9929)">
        <rect x="488.981" y="13.604" width="2.837" height="2.837" style="fill:rgb(129,149,168);"/>
    </g>
    <g transform="matrix(1,0,0,1,0.2042,43.0139)">
        <rect x="509.728" y="13.593" width="2.837" height="2.838" style="fill:rgb(129,149,168);"/>
    </g>
    <g transform="matrix(1,0,0,1,0.2042,43.0139)">
        <rect x="530.476" y="13.593" width="2.837" height="2.838" style="fill:rgb(129,149,168);"/>
    </g>
    <g transform="matrix(1,0,0,1,0.2042,42.9929)">
        <rect x="551.224" y="13.604" width="2.837" height="2.837" style="fill:rgb(129,149,168);"/>
    </g>
    <g transform="matrix(1,0,0,1,0.2042,-40.4571)">
        <rect x="74.027" y="55.329" width="2.837" height="2.837" style="fill:rgb(129,149,168);"/>
    </g>
    <g transform="matrix(1,0,0,1,0.2042,-40.4351)">
        <rect x="94.775" y="55.318" width="2.837" height="2.837" style="fill:rgb(129,149,168);"/>
    </g>
    <g transform="matrix(1,0,0,1,0.2042,-40.4571)">
        <rect x="115.522" y="55.329" width="2.837" height="2.837" style="fill:rgb(129,149,168);"/>
    </g>
    <g transform="matrix(1,0,0,1,0.2042,-40.4351)">
        <rect x="136.27" y="55.318" width="2.837" height="2.837" style="fill:rgb(129,149,168);"/>
    </g>
    <g transform="matrix(1,0,0,1,0.2042,-40.4351)">
        <rect x="157.018" y="55.318" width="2.837" height="2.837" style="fill:rgb(129,149,168);"/>
    </g>
    <g transform="matrix(1,0,0,1,0.2042,-40.4571)">
        <rect x="177.765" y="55.329" width="2.837" height="2.837" style="fill:rgb(129,149,168);"/>
    </g>
    <g transform="matrix(1,0,0,1,0.2042,1.8389)">
        <rect x="74.027" y="34.181" width="2.837" height="2.837" style="fill:rgb(129,149,168);"/>
    </g>
    <g transform="matrix(1,0,0,1,0.2042,1.8589)">
        <rect x="94.775" y="34.171" width="2.837" height="2.837" style="fill:rgb(129,149,168);"/>
    </g>
    <g transform="matrix(1,0,0,1,0.2042,1.8389)">
        <rect x="115.522" y="34.181" width="2.837" height="2.837" style="fill:rgb(129,149,168);"/>
    </g>
    <g transform="matrix(1,0,0,1,0.2042,1.8589)">
        <rect x="136.27" y="34.171" width="2.837" height="2.837" style="fill:rgb(129,149,168);"/>
    </g>
    <g transform="matrix(1,0,0,1,0.2042,1.8589)">
        <rect x="157.018" y="34.171" width="2.837" height="2.837" style="fill:rgb(129,149,168);"/>
    </g>
    <g transform="matrix(1,0,0,1,0.2042,1.8389)">
        <rect x="177.765" y="34.181" width="2.837" height="2.837" style="fill:rgb(129,149,168);"/>
    </g>
    <g transform="matrix(1,0,0,1,0.2042,42.9929)">
        <rect x="74.027" y="13.604" width="2.837" height="2.837" style="fill:rgb(129,149,168);"/>
    </g>
    <g transform="matrix(1,0,0,1,0.2042,43.0139)">
        <rect x="94.775" y="13.593" width="2.837" height="2.838" style="fill:rgb(129,149,168);"/>
    </g>
    <g transform="matrix(1,0,0,1,0.2042,42.9929)">
        <rect x="115.522" y="13.604" width="2.837" height="2.837" style="fill:rgb(129,149,168);"/>
    </g>
    <g transform="matrix(1,0,0,1,0.2042,43.0139)">
        <rect x="136.27" y="13.593" width="2.837" height="2.838" style="fill:rgb(129,149,168);"/>
    </g>
    <g transform="matrix(1,0,0,1,0.2042,43.0139)">
        <rect x="157.018" y="13.593" width="2.837" height="2.838" style="fill:rgb(129,149,168);"/>
    </g>
    <g transform="matrix(1,0,0,1,0.2042,42.9929)">
        <rect x="177.765" y="13.604" width="2.837" height="2.837" style="fill:rgb(129,149,168);"/>
    </g>
    <g transform="matrix(1,0,0,1,0.2042,-40.4351)">
        <rect x="11.784" y="55.318" width="2.837" height="2.837" style="fill:rgb(129,149,168);"/>
    </g>
    <g transform="matrix(1,0,0,1,0.2042,-40.4351)">
        <rect x="32.531" y="55.318" width="2.837" height="2.837" style="fill:rgb(129,149,168);"/>
    </g>
    <g transform="matrix(1,0,0,1,0.2042,-40.4571)">
        <rect x="53.279" y="55.329" width="2.837" height="2.837" style="fill:rgb(129,149,168);"/>
    </g>
    <g transform="matrix(1,0,0,1,0.2042,1.8589)">
        <rect x="11.784" y="34.171" width="2.837" height="2.837" style="fill:rgb(129,149,168);"/>
    </g>
    <g transform="matrix(1,0,0,1,0.2042,1.8589)">
        <rect x="32.531" y="34.171" width="2.837" height="2.837" style="fill:rgb(129,149,168);"/>
    </g>
    <g transform="matrix(1,0,0,1,0.2042,1.8389)">
        <rect x="53.279" y="34.181" width="2.837" height="2.837" style="fill:rgb(129,149,168);"/>
    </g>
    <g transform="matrix(1,0,0,1,0.2042,43.0139)">
        <rect x="11.784" y="13.593" width="2.837" height="2.838" style="fill:rgb(129,149,168);"/>
    </g>
    <g transform="matrix(1,0,0,1,0.2042,43.0139)">
        <rect x="32.531" y="13.593" width="2.837" height="2.838" style="fill:rgb(129,149,168);"/>
    </g>
    <g transform="matrix(1,0,0,1,0.2042,42.9929)">
        <rect x="53.279" y="13.604" width="2.837" height="2.837" style="fill:rgb(129,149,168);"/>
    </g>
    <g transform="matrix(1,0,0,1,0.2042,-40.3351)">
        <rect x="717.074" y="55.268" width="2.837" height="2.837" style="fill:rgb(129,149,168);"/>
    </g>
    <g transform="matrix(1,0,0,1,0.2042,-40.3571)">
        <rect x="737.822" y="55.279" width="2.837" height="2.837" style="fill:rgb(129,149,168);"/>
    </g>
    <g transform="matrix(1,0,0,1,0.2042,1.9599)">
        <rect x="717.074" y="34.121" width="2.837" height="2.836" style="fill:rgb(129,149,168);"/>
    </g>
    <g transform="matrix(1,0,0,1,0.2042,1.9389)">
        <rect x="737.822" y="34.131" width="2.837" height="2.837" style="fill:rgb(129,149,168);"/>
    </g>
    <g transform="matrix(1,0,0,1,0.2042,43.1159)">
        <rect x="717.074" y="13.543" width="2.837" height="2.836" style="fill:rgb(129,149,168);"/>
    </g>
    <g transform="matrix(1,0,0,1,0.2042,43.0949)">
        <rect x="737.822" y="13.553" width="2.837" height="2.837" style="fill:rgb(129,149,168);"/>
    </g>
    <g transform="matrix(1,0,0,1,848.694,45.7909)">
        <path d="M0,27.247L0.407,27.247L27.247,0.406L27.247,0L0,27.247Z" style="fill:rgb(129,149,168);fill-rule:nonzero;"/>
    </g>
    <g transform="matrix(-0.707107,0.707107,0.707107,0.707107,781.729,87.9778)">
        <path d="M-87.57,-36.56L15.432,-36.56L15.145,-36.273L-87.858,-36.273L-87.57,-36.56Z" style="fill:rgb(129,149,168);fill-rule:nonzero;"/>
    </g>
    <g transform="matrix(1,0,0,1,869.444,66.5399)">
        <path d="M0,6.498L0.407,6.498L6.498,0.407L6.498,0L0,6.498Z" style="fill:rgb(129,149,168);fill-rule:nonzero;"/>
    </g>
    <g transform="matrix(-0.707107,0.707107,0.707107,0.707107,802.476,87.9778)">
        <path d="M-87.57,-36.56L15.432,-36.56L15.145,-36.273L-87.858,-36.273L-87.57,-36.56Z" style="fill:rgb(129,149,168);fill-rule:nonzero;"/>
    </g>
    <g transform="matrix(-0.707112,0.707102,0.707102,0.707112,823.219,87.9785)">
        <path d="M-87.572,-36.56L15.431,-36.56L15.143,-36.272L-87.859,-36.273L-87.572,-36.56Z" style="fill:rgb(129,149,168);fill-rule:nonzero;"/>
    </g>
    <g transform="matrix(-0.707107,0.707107,0.707107,0.707107,754.45,4.26953)">
        <path d="M-3.658,-2.091L0.749,-2.091L1.154,-1.803L-3.946,-1.803L-3.658,-2.091Z" style="fill:rgb(129,149,168);fill-rule:nonzero;"/>
    </g>
    <g transform="matrix(1,0,0,1,807.202,4.2969)">
        <path d="M0,68.741L0.406,68.741L68.74,0.407L68.74,0L0,68.741Z" style="fill:rgb(129,149,168);fill-rule:nonzero;"/>
    </g>
    <g transform="matrix(-0.707107,0.707107,0.707107,0.707107,762.698,34.4355)">
        <path d="M-33.824,-14.585L5.923,-14.585L6.329,-14.298L-34.112,-14.298L-33.824,-14.585Z" style="fill:rgb(129,149,168);fill-rule:nonzero;"/>
    </g>
    <g transform="matrix(1,0,0,1,827.951,25.0469)">
        <path d="M0,47.991L0.409,47.991L47.991,0.409L47.991,0L0,47.991Z" style="fill:rgb(129,149,168);fill-rule:nonzero;"/>
    </g>
    <g transform="matrix(-0.707107,0.707107,0.707107,0.707107,770.951,64.6116)">
        <path d="M-64,-27.085L11.1,-27.085L11.507,-26.798L-64.288,-26.798L-64,-27.085Z" style="fill:rgb(129,149,168);fill-rule:nonzero;"/>
    </g>
    <g transform="matrix(0.707107,0.707107,0.707107,-0.707107,760.341,37.1523)">
        <path d="M-5.941,-14.876L35.873,-14.876L36.161,-14.589L-6.145,-14.589L-5.941,-14.876Z" style="fill:rgb(129,149,168);fill-rule:nonzero;"/>
    </g>
    <g transform="matrix(0.707107,0.707107,0.707107,-0.707107,841.013,-14.2636)">
        <path d="M-14.468,-34.929L84.326,-34.929L84.038,-34.641L-14.18,-34.641L-14.468,-34.929Z" style="fill:rgb(129,149,168);fill-rule:nonzero;"/>
    </g>
    <g transform="matrix(0.707107,0.707107,0.707107,-0.707107,821.813,-15.024)">
        <path d="M-15.024,-36.561L87.977,-36.561L88.265,-36.272L-14.737,-36.273L-15.024,-36.561Z" style="fill:rgb(129,149,168);fill-rule:nonzero;"/>
    </g>
    <g transform="matrix(0.707107,0.707107,0.707107,-0.707107,801.068,-15.024)">
        <path d="M-15.024,-36.561L87.977,-36.561L88.265,-36.272L-14.736,-36.272L-15.024,-36.561Z" style="fill:rgb(129,149,168);fill-rule:nonzero;"/>
    </g>
    <g transform="matrix(0.707107,0.707107,0.707107,-0.707107,872.132,-1.37345)">
        <path d="M-1.578,-3.81L9.197,-3.81L8.91,-3.522L-1.29,-3.522L-1.578,-3.81Z" style="fill:rgb(129,149,168);fill-rule:nonzero;"/>
    </g>
    <g transform="matrix(0.707112,0.707101,0.707101,-0.707112,784.099,-5.65883)">
        <path d="M-13.286,-32.609L78.685,-32.609L78.972,-32.322L-13.49,-32.321L-13.286,-32.609Z" style="fill:rgb(129,149,168);fill-rule:nonzero;"/>
    </g>
    <g transform="matrix(0.707107,0.707107,0.707107,-0.707107,861.761,-5.66946)">
        <path d="M-5.874,-14.181L34.236,-14.181L33.948,-13.893L-5.586,-13.893L-5.874,-14.181Z" style="fill:rgb(129,149,168);fill-rule:nonzero;"/>
    </g>
    <g transform="matrix(0.707107,0.707107,0.707107,-0.707107,772.221,15.7456)">
        <path d="M-9.614,-23.743L57.28,-23.743L57.568,-23.456L-9.818,-23.456L-9.614,-23.743Z" style="fill:rgb(129,149,168);fill-rule:nonzero;"/>
    </g>
    <g transform="matrix(0.707107,0.707107,0.707107,-0.707107,851.386,-9.96672)">
        <path d="M-10.171,-24.555L59.282,-24.555L58.994,-24.268L-9.883,-24.268L-10.171,-24.555Z" style="fill:rgb(129,149,168);fill-rule:nonzero;"/>
    </g>
    <g transform="matrix(1,0,0,1,0.2042,-40.4571)">
        <rect x="820.865" y="55.329" width="2.837" height="2.837" style="fill:rgb(129,149,168);"/>
    </g>
    <g transform="matrix(1,0,0,1,0.2042,-40.4351)">
        <rect x="841.612" y="55.318" width="2.837" height="2.837" style="fill:rgb(129,149,168);"/>
    </g>
    <g transform="matrix(1,0,0,1,0.2042,-40.4571)">
        <rect x="862.36" y="55.329" width="2.837" height="2.837" style="fill:rgb(129,149,168);"/>
    </g>
    <g transform="matrix(1,0,0,1,0.2042,1.8389)">
        <rect x="820.865" y="34.181" width="2.837" height="2.837" style="fill:rgb(129,149,168);"/>
    </g>
    <g transform="matrix(1,0,0,1,0.2042,1.8589)">
        <rect x="841.612" y="34.171" width="2.837" height="2.837" style="fill:rgb(129,149,168);"/>
    </g>
    <g transform="matrix(1,0,0,1,0.2042,1.8389)">
        <rect x="862.36" y="34.181" width="2.837" height="2.837" style="fill:rgb(129,149,168);"/>
    </g>
    <g transform="matrix(1,0,0,1,0.2042,42.9929)">
        <rect x="820.865" y="13.604" width="2.837" height="2.837" style="fill:rgb(129,149,168);"/>
    </g>
    <g transform="matrix(1,0,0,1,0.2042,43.0139)">
        <rect x="841.612" y="13.593" width="2.837" height="2.838" style="fill:rgb(129,149,168);"/>
    </g>
    <g transform="matrix(1,0,0,1,0.2042,42.9929)">
        <rect x="862.36" y="13.604" width="2.837" height="2.837" style="fill:rgb(129,149,168);"/>
    </g>
    <g transform="matrix(1,0,0,1,0.2042,-40.4351)">
        <rect x="758.622" y="55.318" width="2.837" height="2.837" style="fill:rgb(129,149,168);"/>
    </g>
    <g transform="matrix(1,0,0,1,0.2042,-40.4351)">
        <rect x="779.369" y="55.318" width="2.837" height="2.837" style="fill:rgb(129,149,168);"/>
    </g>
    <g transform="matrix(1,0,0,1,0.2042,-40.4571)">
        <rect x="800.117" y="55.329" width="2.837" height="2.837" style="fill:rgb(129,149,168);"/>
    </g>
    <g transform="matrix(1,0,0,1,0.2042,1.8589)">
        <rect x="758.622" y="34.171" width="2.837" height="2.837" style="fill:rgb(129,149,168);"/>
    </g>
    <g transform="matrix(1,0,0,1,0.2042,1.8589)">
        <rect x="779.369" y="34.171" width="2.837" height="2.837" style="fill:rgb(129,149,168);"/>
    </g>
    <g transform="matrix(1,0,0,1,0.2042,1.8389)">
        <rect x="800.117" y="34.181" width="2.837" height="2.837" style="fill:rgb(129,149,168);"/>
    </g>
    <g transform="matrix(1,0,0,1,0.2042,43.0139)">
        <rect x="758.622" y="13.593" width="2.837" height="2.838" style="fill:rgb(129,149,168);"/>
    </g>
    <g transform="matrix(1,0,0,1,0.2042,43.0139)">
        <rect x="779.369" y="13.593" width="2.837" height="2.838" style="fill:rgb(129,149,168);"/>
    </g>
    <g transform="matrix(1,0,0,1,0.2042,42.9929)">
        <rect x="800.117" y="13.604" width="2.837" height="2.837" style="fill:rgb(129,149,168);"/>
    </g>
</svg>
